<?xml version="1.0" standalone="no"?>
<!DOCTYPE svg PUBLIC "-//W3C//DTD SVG 20010904//EN"
 "http://www.w3.org/TR/2001/REC-SVG-20010904/DTD/svg10.dtd">
<svg version="1.0" xmlns="http://www.w3.org/2000/svg"
 width="1024.000000pt" height="1024.000000pt" viewBox="0 0 1024.000000 1024.000000"
 preserveAspectRatio="xMidYMid meet">
<metadata>
Created by potrace 1.14, written by Peter Selinger 2001-2017
</metadata>
<g transform="translate(0.000000,1024.000000) scale(0.100000,-0.100000)"
fill="#000000" stroke="none">
<path d="M5115 10151 c-3 -5 -2 -12 3 -15 5 -3 9 1 9 9 0 17 -3 19 -12 6z"/>
<path d="M4813 10143 c4 -6 -1 -17 -10 -24 -19 -16 -22 -16 -35 3 -7 10 -8 9
-4 -4 3 -10 1 -18 -5 -18 -6 0 -8 -4 -4 -9 3 -5 1 -12 -4 -16 -6 -3 -8 3 -6
15 2 11 -1 20 -7 20 -6 0 -5 7 3 18 13 15 12 16 -3 3 -10 -7 -15 -17 -12 -22
7 -12 -3 -11 -26 1 -21 11 -38 -4 -19 -16 8 -5 9 -3 4 6 -5 8 -4 11 3 6 6 -4
8 -14 5 -23 -4 -11 -8 -13 -11 -5 -2 7 -13 12 -23 12 -14 0 -18 -4 -13 -12 6
-10 4 -10 -8 0 -11 9 -18 10 -23 2 -3 -5 -11 -10 -18 -10 -6 0 -2 7 9 15 18
14 18 14 -3 8 -13 -3 -23 -10 -23 -15 0 -5 -4 -7 -9 -3 -5 3 -12 1 -16 -5 -7
-12 -25 -4 -25 11 0 5 7 9 16 7 10 -2 18 3 20 10 1 7 0 8 -3 2 -3 -6 -11 -6
-25 1 -11 6 -18 7 -15 2 3 -5 2 -15 -3 -23 -7 -11 -12 -11 -23 -2 -7 7 -17 9
-20 5 -4 -3 -7 0 -7 8 0 12 -2 12 -9 0 -5 -8 -8 -19 -7 -25 2 -6 1 -8 -1 -3
-3 4 -10 4 -15 1 -6 -4 -8 -2 -4 4 3 6 2 13 -4 17 -6 4 -7 11 -4 17 4 7 2 8
-5 4 -9 -6 -9 -11 0 -22 9 -11 8 -14 -5 -14 -9 0 -16 6 -16 12 0 7 -8 1 -17
-12 -10 -14 -17 -29 -15 -33 1 -5 -2 -6 -8 -2 -6 3 -8 10 -5 15 3 4 -2 10 -10
14 -18 6 -19 1 -5 -24 7 -13 7 -21 -2 -26 -6 -4 -8 -3 -5 3 4 6 -1 19 -9 29
-15 19 -15 19 -9 -1 3 -11 3 -16 -1 -12 -4 4 -12 2 -19 -3 -8 -7 -12 -5 -12 5
0 8 4 12 9 9 4 -3 8 -3 8 0 0 3 -8 10 -19 15 -16 9 -18 7 -14 -17 3 -24 3 -25
-6 -6 -11 25 -33 42 -29 22 2 -7 -3 -12 -9 -10 -8 1 -13 -8 -13 -20 0 -18 -2
-20 -9 -8 -6 8 -7 18 -4 24 3 5 1 6 -5 2 -6 -3 -9 -15 -7 -26 2 -11 -1 -22 -6
-26 -5 -3 -9 -2 -8 3 7 38 -16 38 -31 -1 -7 -17 -9 -17 -9 -3 -1 9 -8 17 -17
17 -9 0 -12 5 -8 13 5 9 4 9 -6 0 -10 -10 -11 -15 -1 -27 9 -11 9 -16 0 -22
-7 -4 -9 -3 -6 3 4 6 0 14 -8 17 -13 5 -14 10 -5 28 10 21 10 22 -3 5 -9 -10
-18 -14 -21 -8 -3 5 -12 8 -19 7 -21 -3 -38 -17 -32 -27 4 -5 1 -9 -5 -9 -6 0
-9 -4 -5 -9 3 -5 0 -13 -6 -17 -8 -5 -9 -3 -4 6 6 9 1 10 -16 5 -19 -5 -21 -4
-9 5 13 10 13 11 0 7 -8 -2 -22 2 -31 10 -14 12 -18 11 -30 -4 -13 -16 -12
-17 3 -5 14 11 18 10 28 -8 6 -12 9 -24 6 -28 -3 -3 -6 0 -6 6 0 6 -13 10 -30
10 -16 -1 -30 -5 -30 -10 0 -5 4 -7 9 -4 5 3 11 0 14 -7 3 -9 -4 -13 -22 -13
-18 1 -25 -4 -23 -14 2 -8 0 -12 -4 -8 -4 4 -14 2 -23 -5 -14 -11 -15 -10 -1
8 8 11 21 24 28 28 15 10 16 27 1 27 -5 0 -7 -4 -4 -10 3 -5 -1 -10 -10 -10
-9 0 -14 4 -11 8 2 4 -9 8 -25 7 -26 0 -27 -2 -13 -12 9 -7 21 -10 26 -6 6 3
5 -4 -1 -15 -7 -13 -18 -19 -31 -17 -11 2 -22 -1 -26 -6 -4 -6 -11 -6 -20 2
-7 6 -12 15 -9 19 3 5 1 12 -5 15 -6 4 -9 1 -8 -7 2 -7 -2 -12 -8 -11 -7 1
-20 -7 -29 -17 -21 -23 -41 -26 -48 -7 -4 9 -6 9 -6 -1 -1 -7 -6 -10 -13 -6
-7 5 -8 3 -3 -6 6 -10 4 -12 -7 -7 -9 3 -21 0 -28 -6 -10 -9 -12 -8 -7 5 3 10
3 19 -1 22 -4 2 -9 -6 -10 -19 -1 -19 3 -23 21 -23 12 1 30 8 40 16 9 8 17 10
17 5 0 -13 -26 -25 -59 -29 -13 -2 -28 -9 -33 -16 -6 -9 -7 -6 -4 8 9 29 -21
27 -41 -3 -14 -21 -17 -22 -33 -8 -14 13 -17 13 -17 0 0 -8 5 -11 10 -8 6 3 7
1 3 -5 -10 -17 -36 -3 -29 16 4 13 3 14 -5 3 -8 -11 -10 -11 -15 0 -3 8 -6 9
-6 3 -1 -6 6 -17 14 -24 17 -14 20 -30 4 -30 -5 0 -7 5 -4 10 3 6 -4 10 -17
10 -18 0 -20 -2 -8 -10 8 -5 10 -10 5 -10 -6 0 -17 6 -24 13 -11 10 -13 10 -7
0 4 -7 3 -13 -3 -13 -5 0 -12 8 -15 18 -2 9 -4 4 -3 -13 2 -25 -1 -29 -17 -27
-18 3 -19 2 -5 -15 13 -16 12 -17 -3 -5 -13 10 -17 10 -21 0 -4 -8 -6 -7 -6 5
-1 9 4 17 10 17 5 0 7 5 4 10 -7 12 -26 14 -24 3 5 -30 -27 -43 -44 -19 -5 7
-7 3 -5 -9 2 -12 11 -19 21 -19 9 1 14 -3 11 -8 -3 -5 -13 -7 -21 -4 -9 4 -21
2 -27 -3 -6 -6 -18 -6 -25 -2 -9 6 -10 11 -2 15 6 4 11 2 11 -4 0 -6 5 -8 11
-4 14 8 -9 24 -26 18 -12 -5 -40 -53 -37 -66 2 -11 -28 -2 -41 12 -10 12 -9
12 4 2 13 -10 19 -9 29 3 9 11 9 15 1 15 -7 0 -9 5 -5 12 4 7 3 8 -5 4 -6 -4
-9 -12 -5 -17 3 -6 -2 -9 -11 -7 -11 2 -19 -4 -21 -15 -4 -28 -14 -34 -27 -16
-11 15 -14 15 -27 1 -13 -14 -12 -15 3 -9 11 4 16 3 12 -4 -4 -5 -15 -7 -26
-4 -15 5 -17 3 -12 -11 6 -16 3 -16 -30 3 -33 20 -36 20 -25 3 7 -10 15 -17
19 -14 4 2 11 -1 15 -7 4 -7 3 -9 -3 -6 -6 4 -16 0 -23 -8 -7 -8 -16 -13 -20
-10 -5 3 -16 -5 -24 -17 -9 -12 -16 -18 -16 -12 0 5 5 15 11 21 7 7 6 12 -5
16 -9 4 -15 1 -13 -6 1 -7 -4 -11 -12 -9 -12 3 -12 1 0 -14 13 -16 12 -16 -9
-5 -12 7 -20 16 -17 22 4 5 2 9 -4 9 -5 0 -8 -13 -6 -29 2 -18 -2 -35 -11 -42
-8 -6 -14 -8 -15 -3 0 5 -4 0 -9 -11 -8 -19 -9 -19 -9 -1 -1 14 -4 16 -14 7
-8 -6 -18 -7 -22 -3 -5 4 -5 -1 -2 -11 4 -10 3 -16 -2 -12 -5 3 -11 2 -14 -2
-5 -11 -1 8 8 29 8 19 -18 19 -37 0 -15 -15 -19 -42 -6 -42 6 0 8 6 5 14 -3 8
1 20 9 26 17 15 17 10 4 -25 -8 -21 -14 -25 -32 -20 -18 6 -20 4 -14 -11 6
-15 5 -16 -5 -7 -10 10 -9 16 1 28 11 13 10 14 -4 9 -9 -3 -16 -14 -16 -24 0
-21 -23 -43 -35 -32 -5 4 -5 -2 -1 -13 5 -15 4 -17 -5 -8 -13 13 -3 36 13 27
7 -5 8 -2 3 6 -5 8 -4 11 2 7 5 -3 10 0 10 8 0 12 -4 12 -20 -2 -10 -10 -21
-17 -23 -15 -2 1 -10 2 -16 2 -9 0 -9 -3 -2 -8 18 -12 23 -39 8 -39 -9 0 -13
6 -10 14 3 8 2 12 -3 8 -5 -3 -12 1 -14 7 -3 7 -4 0 -4 -16 1 -16 -4 -31 -10
-33 -7 -3 -13 0 -13 7 0 6 5 8 13 4 7 -5 7 -1 -3 12 -8 10 -16 21 -18 24 -2 3
-3 -2 -2 -10 4 -29 0 -39 -22 -46 -13 -4 -23 -5 -24 -3 0 2 -9 -3 -18 -11 -10
-8 -25 -15 -33 -16 -19 -3 -30 -14 -15 -14 7 0 12 -4 12 -10 0 -5 -6 -7 -14
-4 -8 3 -17 0 -22 -7 -4 -7 -3 -10 4 -5 6 3 14 1 18 -5 4 -8 3 -9 -4 -5 -7 4
-12 3 -12 -3 0 -6 -7 -8 -15 -5 -11 5 -14 2 -8 -12 5 -14 1 -13 -14 5 -15 19
-22 21 -28 11 -5 -9 -4 -11 3 -6 7 4 12 4 13 -1 0 -4 2 -16 4 -25 2 -10 -1
-18 -7 -18 -6 0 -7 8 -4 17 4 10 4 14 0 10 -4 -4 -14 -1 -22 6 -13 9 -14 9 -8
0 7 -12 -5 -18 -27 -14 -5 1 -6 -3 -2 -9 6 -10 -6 -14 -35 -11 -13 2 -13 1 0
-8 10 -7 23 -4 45 9 l31 19 1 -27 c0 -15 -1 -19 -4 -9 -2 9 -9 17 -14 17 -6 0
-7 -6 -3 -12 4 -7 4 -10 -1 -6 -10 10 -47 -10 -40 -22 10 -17 -13 -20 -26 -3
-8 10 -9 14 -2 10 6 -4 14 -4 17 1 2 4 -4 9 -16 9 -13 1 -18 -3 -14 -13 3 -8
9 -21 12 -30 4 -10 2 -15 -7 -14 -8 1 -25 2 -38 1 -18 -1 -22 -5 -18 -22 5
-17 3 -18 -9 -8 -8 7 -13 18 -10 26 4 8 1 11 -5 8 -6 -4 -8 -14 -5 -22 5 -11
2 -13 -10 -9 -10 4 -14 2 -11 -6 2 -7 13 -11 23 -10 10 2 17 2 14 0 -26 -20
-44 -31 -38 -24 4 4 1 14 -5 21 -10 10 -15 9 -25 -6 -7 -11 -18 -17 -23 -14
-5 4 -9 2 -9 -4 0 -5 6 -11 13 -14 6 -2 9 -8 5 -12 -4 -4 -14 -3 -21 4 -11 9
-17 8 -27 -4 -7 -8 -16 -12 -21 -9 -5 3 -10 0 -10 -5 -3 -21 -4 -26 -14 -41
-8 -13 -7 -13 8 -1 9 7 17 9 17 3 0 -12 -26 -23 -34 -14 -10 9 -37 11 -31 2 3
-5 -3 -13 -12 -19 -10 -6 -13 -11 -6 -11 20 0 11 -36 -10 -36 -17 0 -17 1 -1
13 10 7 13 13 7 13 -7 0 -15 -5 -18 -10 -4 -6 -11 -8 -16 -5 -5 4 -6 -2 -2
-12 6 -16 5 -16 -10 -4 -9 7 -17 9 -17 3 0 -14 24 -22 52 -15 12 3 20 3 17 -1
-12 -13 -73 -15 -81 -3 -5 8 -8 6 -8 -6 0 -10 -4 -16 -9 -13 -5 3 -12 -1 -15
-10 -3 -8 -10 -13 -15 -9 -5 3 -13 0 -17 -6 -4 -8 -3 -9 4 -5 16 10 16 -29 0
-41 -7 -5 -20 -9 -28 -8 -16 1 -30 -13 -30 -32 0 -7 9 -10 20 -8 11 2 18 0 15
-5 -7 -11 -29 -7 -51 10 -16 14 -16 13 -5 -9 11 -19 11 -22 0 -16 -9 6 -11 3
-6 -9 4 -10 3 -15 -3 -11 -6 3 -10 1 -10 -4 0 -6 -8 -11 -17 -11 -14 0 -15 -2
-5 -9 11 -7 11 -9 -1 -14 -10 -4 -14 0 -13 11 2 9 8 18 14 20 20 6 34 40 20
48 -7 4 -8 3 -4 -4 4 -7 2 -12 -4 -12 -6 0 -8 -4 -5 -10 3 -5 -1 -10 -9 -10
-9 0 -18 -11 -22 -25 -3 -14 -10 -22 -15 -19 -5 3 -6 11 -2 17 4 7 0 6 -10 -2
-9 -7 -17 -16 -17 -19 0 -3 3 -3 6 1 4 3 13 -1 21 -9 8 -8 19 -11 25 -8 7 4 8
2 4 -4 -5 -9 -13 -9 -27 -2 -10 6 -19 8 -19 4 0 -3 -8 0 -18 7 -14 11 -15 11
-4 -1 6 -8 12 -20 12 -28 0 -10 -5 -9 -17 5 -10 10 -14 13 -9 6 4 -7 5 -21 1
-30 -5 -10 -8 -27 -7 -38 1 -16 0 -17 -4 -2 -6 19 -25 24 -21 5 1 -7 -8 -13
-21 -14 -13 -1 -30 -11 -38 -23 -9 -12 -20 -19 -25 -16 -5 3 -6 -1 -3 -9 6
-15 18 -20 37 -17 5 1 6 -3 2 -8 -6 -11 -36 -3 -47 13 -4 6 -8 1 -8 -12 0 -13
4 -20 10 -17 14 9 13 -3 -2 -19 -10 -10 -16 -9 -31 8 -10 12 -16 15 -12 9 3
-7 1 -13 -5 -13 -6 0 -8 -5 -4 -12 5 -7 2 -9 -9 -5 -12 4 -14 2 -10 -10 5 -12
3 -14 -7 -8 -8 5 -11 4 -7 -2 3 -5 -3 -17 -14 -27 -12 -10 -18 -24 -15 -34 3
-9 1 -24 -4 -32 -6 -9 -10 -10 -10 -3 0 6 -9 11 -20 10 -11 -1 -20 -5 -20 -9
0 -18 -3 -24 -27 -52 -16 -19 -21 -32 -14 -40 7 -8 4 -12 -10 -12 -12 0 -18 5
-15 13 8 21 0 15 -19 -13 -18 -29 -30 -88 -15 -79 6 4 7 -1 3 -11 -4 -11 -8
-13 -11 -6 -2 7 -9 9 -14 6 -6 -4 -8 -3 -5 2 3 5 -2 10 -12 10 -10 0 -18 -6
-18 -13 0 -7 5 -9 10 -6 5 3 7 0 5 -8 -3 -8 -10 -13 -16 -12 -6 2 -16 -7 -22
-20 -10 -20 -10 -20 3 -5 13 16 15 16 26 -10 10 -24 10 -25 -3 -9 -13 16 -15
16 -31 -9 -16 -26 -16 -26 7 -20 l23 7 -23 -13 c-16 -10 -19 -17 -12 -26 7 -9
7 -9 -2 -2 -15 13 -31 13 -23 1 3 -5 1 -12 -5 -16 -6 -4 -8 -10 -5 -15 7 -12
-23 -21 -53 -15 l-27 5 25 -11 c14 -7 30 -11 35 -10 6 2 6 -1 2 -6 -5 -4 -14
-8 -20 -8 -7 0 -11 -8 -9 -17 1 -9 -1 -19 -6 -22 -10 -6 -9 24 1 41 4 7 1 10
-10 9 -21 -3 -24 -54 -3 -67 12 -8 11 -9 -5 -7 -13 2 -20 -2 -19 -13 1 -9 -5
-16 -12 -16 -7 0 -10 5 -6 11 3 6 -5 4 -18 -5 -26 -17 -38 -39 -21 -39 6 0 10
3 8 8 -1 4 1 8 6 10 4 1 7 -1 6 -4 0 -4 5 -10 13 -15 9 -6 7 -8 -7 -8 -45 -1
-53 -4 -47 -20 5 -14 3 -14 -10 -3 -13 10 -18 10 -24 1 -4 -8 -3 -9 5 -5 6 4
14 0 17 -9 5 -12 10 -13 20 -4 8 6 12 15 9 18 -2 4 3 8 11 8 10 0 7 -8 -11
-27 -14 -14 -22 -30 -18 -34 5 -4 1 -6 -7 -4 -9 2 -16 -6 -18 -21 -3 -17 -6
-20 -12 -11 -6 10 -12 10 -26 0 -15 -9 -15 -10 -2 -6 17 5 33 -20 18 -29 -5
-3 -7 -14 -5 -25 3 -13 -1 -17 -12 -13 -8 3 -11 9 -6 12 11 7 11 27 1 37 -5 4
-8 0 -8 -9 0 -10 -5 -14 -15 -11 -8 4 -15 1 -15 -6 0 -6 5 -8 10 -5 6 3 10 -1
10 -9 0 -9 5 -16 10 -16 6 0 10 -5 10 -12 0 -7 -7 -5 -17 5 -16 14 -21 14 -43
1 -14 -9 -17 -13 -8 -10 10 3 24 3 32 0 12 -5 12 -9 -2 -25 -9 -10 -21 -19
-26 -19 -5 0 -1 10 10 22 12 14 13 18 3 10 -9 -6 -20 -8 -24 -4 -5 4 -5 1 -1
-5 4 -8 2 -13 -6 -13 -9 0 -9 -3 2 -10 8 -5 11 -10 5 -10 -5 0 1 -7 15 -16 25
-15 25 -15 1 -8 -16 4 -21 3 -17 -5 5 -7 1 -9 -8 -5 -9 3 -13 11 -9 18 3 6 2
7 -2 3 -12 -10 -15 -38 -4 -31 17 10 9 -9 -8 -22 -18 -12 -19 -16 -22 -54 -1
-25 -28 -27 -34 -2 -4 16 -5 16 -6 0 -1 -16 25 -38 41 -35 3 1 10 -1 13 -5 4
-4 -4 -5 -19 -2 -18 3 -28 -1 -33 -12 -3 -8 -15 -19 -27 -24 -17 -7 -16 -8 12
-8 18 1 35 -2 39 -5 3 -4 -1 -7 -11 -7 -10 0 -14 -5 -11 -11 4 -6 -3 -13 -15
-16 -16 -4 -18 -8 -8 -14 10 -7 9 -9 -4 -9 -25 0 -22 19 5 30 24 9 23 10 -10
14 -13 2 -19 -2 -16 -9 2 -7 -3 -20 -13 -29 -9 -9 -13 -20 -10 -24 4 -3 11 0
16 8 7 11 10 12 10 2 0 -7 4 -11 9 -7 5 3 13 1 16 -5 4 -6 1 -9 -7 -8 -8 2
-12 -5 -10 -17 l4 -20 -17 20 c-16 19 -16 19 -10 -7 5 -28 -8 -38 -21 -16 -5
7 -3 8 7 3 11 -7 12 -6 2 7 -7 8 -9 19 -5 23 4 5 1 5 -6 1 -7 -4 -10 -11 -7
-16 3 -5 -3 -14 -12 -20 -17 -11 -17 -11 0 -6 26 8 21 -23 -8 -46 -14 -11 -25
-25 -25 -31 0 -7 4 -6 11 3 8 12 9 10 7 -10 -2 -14 2 -24 8 -23 6 1 11 -5 11
-13 0 -10 -4 -11 -11 -4 -17 17 -29 11 -15 -7 8 -9 9 -14 3 -10 -16 10 -25
-18 -11 -32 9 -10 9 -12 -2 -9 -7 2 -16 -3 -19 -11 -2 -8 0 -11 5 -8 5 3 10 0
10 -8 0 -13 -26 -13 -48 0 -6 4 -5 -2 2 -13 7 -12 16 -19 19 -17 4 2 7 -2 7
-10 0 -8 -5 -13 -11 -12 -5 1 -10 -7 -10 -18 -1 -32 -19 -46 -31 -24 -7 13
-14 15 -25 9 -13 -8 -13 -10 1 -10 21 0 31 -34 15 -51 -8 -9 -7 -11 7 -6 23 8
22 0 -2 -13 -20 -10 -24 2 -8 28 5 7 4 12 -2 12 -6 0 -12 -4 -12 -10 -1 -5 -2
-15 -3 -22 0 -6 -7 -13 -15 -16 -9 -3 -11 0 -6 8 5 9 4 11 -3 6 -16 -10 -15
-14 9 -27 12 -6 19 -7 16 -2 -7 12 30 10 40 -2 5 -4 3 -6 -2 -2 -6 3 -17 2
-25 -3 -11 -7 -11 -12 -2 -23 9 -11 9 -14 -3 -14 -8 0 -12 4 -9 9 3 4 0 8 -6
8 -6 0 -9 4 -6 8 3 5 -1 9 -9 9 -8 0 -12 -4 -10 -8 3 -4 -1 -9 -8 -12 -17 -6
-16 -35 2 -62 9 -15 11 -16 7 -2 -3 9 -1 17 5 17 6 0 9 -8 7 -17 -2 -11 -11
-17 -21 -15 -15 3 -22 -8 -18 -30 0 -5 -4 -8 -9 -8 -6 0 -10 -5 -10 -11 0 -8
5 -8 15 1 8 7 12 16 9 21 -3 5 0 9 5 9 14 0 14 -17 1 -25 -5 -3 -10 -13 -10
-22 0 -19 -46 -64 -56 -54 -4 3 -4 1 0 -6 4 -7 13 -10 21 -7 8 4 13 10 10 14
-3 5 4 6 15 3 11 -3 22 -9 25 -13 3 -5 -4 -6 -15 -3 -16 4 -19 2 -14 -11 3 -9
1 -16 -6 -16 -6 0 -8 5 -4 13 6 9 5 9 -7 0 -12 -10 -18 -10 -29 0 -12 10 -12
9 -2 -5 9 -11 10 -18 3 -23 -6 -3 -10 -16 -9 -28 1 -29 -5 -50 -17 -60 -6 -5
-4 -7 5 -4 8 2 14 10 12 16 -1 7 2 10 8 6 8 -5 8 -11 1 -19 -7 -9 -7 -16 2
-25 10 -11 8 -11 -10 -2 -26 13 -44 15 -24 2 8 -5 15 -21 15 -34 1 -14 -2 -23
-6 -21 -4 3 -8 -2 -8 -10 0 -10 6 -13 15 -10 8 4 15 1 15 -5 0 -6 -5 -10 -12
-8 -7 1 -13 -4 -14 -10 -1 -7 -3 -16 -4 -20 -1 -5 -1 -12 0 -18 1 -5 -2 -6 -6
-2 -10 10 -14 38 -5 32 4 -2 8 2 8 10 0 8 -3 14 -6 13 -21 -2 -31 4 -25 14 5
7 3 8 -6 3 -11 -7 -10 -10 1 -19 23 -17 10 -64 -13 -50 -7 4 -8 2 -4 -5 6 -9
11 -9 22 0 9 7 14 8 14 1 0 -6 -4 -13 -10 -17 -5 -3 -6 -13 -3 -23 5 -15 3
-14 -18 3 l-24 20 19 -22 c19 -23 41 -21 32 2 -2 7 2 16 10 19 21 8 31 7 19
-2 -23 -16 -34 -49 -22 -62 7 -7 0 -5 -16 5 -23 15 -26 15 -21 2 3 -8 12 -18
20 -21 8 -3 14 -11 14 -18 0 -8 -3 -9 -8 -3 -4 6 -16 12 -27 13 -17 3 -16 1 5
-16 23 -19 23 -20 5 -19 -12 1 -19 -3 -17 -12 2 -7 -5 -22 -14 -32 -15 -16
-15 -17 5 -12 11 3 19 9 16 13 -7 11 22 6 32 -5 4 -4 3 -5 -4 -1 -7 4 -17 -2
-23 -14 -6 -11 -17 -20 -24 -20 -8 0 -17 -7 -20 -16 -9 -25 -7 -29 6 -12 7 8
22 18 33 22 16 5 15 3 -5 -14 -14 -11 -18 -18 -9 -14 10 3 20 1 24 -5 4 -7 -1
-8 -12 -4 -16 6 -17 5 -3 -13 14 -18 14 -18 -3 -5 -16 12 -20 12 -35 -2 -20
-21 -5 -42 18 -26 13 9 12 10 -2 5 -10 -3 -18 -1 -18 4 0 16 18 20 29 6 8 -10
9 -16 1 -21 -6 -3 -8 -11 -5 -16 3 -5 -1 -6 -10 -3 -11 5 -14 2 -8 -12 4 -10
2 -15 -3 -11 -6 3 -16 1 -24 -4 -12 -7 -11 -8 5 -6 11 1 26 6 33 11 8 5 19 3
25 -3 9 -9 7 -10 -8 -5 -18 7 -19 6 -5 -12 14 -18 14 -18 -3 -5 -12 9 -17 10
-17 2 0 -7 -5 -9 -12 -5 -6 4 -8 3 -4 -4 3 -6 -1 -18 -10 -26 -20 -21 -6 -21
17 0 13 12 19 12 25 3 4 -7 3 -10 -3 -6 -6 4 -14 0 -17 -9 -5 -12 -2 -15 11
-10 17 6 17 5 1 -7 -10 -8 -14 -18 -10 -22 4 -5 1 -5 -6 -1 -7 4 -10 11 -8 15
3 4 -1 8 -8 8 -7 0 -13 -6 -13 -13 0 -7 4 -11 9 -8 4 3 8 1 8 -5 0 -5 -4 -13
-10 -16 -15 -9 -12 -25 5 -25 8 0 15 -3 16 -7 0 -5 2 -16 4 -25 2 -11 -3 -15
-16 -13 -10 2 -22 -1 -25 -7 -4 -7 -2 -8 4 -4 7 4 12 3 12 -3 0 -6 7 -7 17 -4
11 4 14 3 9 -6 -4 -6 -13 -11 -19 -10 -28 3 -35 -3 -33 -30 0 -16 4 -27 8 -25
5 3 8 -2 8 -11 0 -9 4 -14 9 -11 5 3 8 -2 7 -12 0 -9 5 -16 12 -14 8 1 11 -2
7 -8 -5 -8 -11 -8 -20 0 -11 9 -16 6 -21 -14 -3 -14 -10 -23 -15 -21 -4 3 -6
12 -3 19 3 8 1 16 -4 20 -13 8 -8 -23 11 -67 9 -21 13 -45 10 -54 -5 -12 -3
-14 8 -8 11 7 12 6 2 -7 -7 -8 -9 -19 -5 -23 4 -5 1 -5 -6 -1 -7 4 -10 11 -7
16 3 4 -2 13 -10 20 -10 9 -15 9 -15 1 0 -6 5 -11 11 -11 8 0 7 -6 -2 -17 -8
-9 -9 -14 -3 -10 7 4 15 0 18 -9 3 -8 11 -12 17 -8 8 4 8 1 1 -12 -5 -11 -8
-27 -7 -37 2 -9 -1 -15 -6 -11 -5 3 -7 10 -4 15 4 5 1 9 -5 9 -8 0 -9 -7 -5
-17 4 -10 8 -25 10 -33 2 -8 4 -15 5 -15 1 0 3 -8 5 -18 2 -10 -1 -14 -8 -10
-7 4 -8 0 -4 -11 6 -14 3 -17 -9 -12 -14 5 -15 4 -4 -9 10 -12 16 -13 29 -3
12 9 11 7 -2 -8 -16 -20 -17 -39 -5 -84 3 -8 3 -12 1 -8 -5 8 -53 -12 -53 -21
0 -4 10 -8 22 -8 18 -2 20 0 8 7 -8 5 -10 10 -5 10 6 0 17 -5 25 -10 13 -9 13
-10 0 -10 -13 0 -13 -1 0 -10 10 -7 11 -10 2 -10 -8 0 -11 -9 -8 -25 3 -15 1
-23 -5 -20 -5 4 -7 11 -4 16 4 5 1 9 -5 9 -7 0 -9 -7 -6 -16 3 -9 6 -20 6 -25
0 -4 8 -6 18 -4 9 3 4 -2 -13 -10 l-30 -16 30 5 c17 3 24 3 17 0 -6 -3 -9 -11
-5 -17 4 -7 0 -8 -11 -4 -10 4 -15 3 -11 -3 3 -6 2 -10 -3 -10 -21 0 -21 -30
1 -40 20 -10 21 -10 4 3 -11 9 -14 18 -8 21 5 4 15 -3 21 -14 6 -11 8 -20 4
-20 -3 0 -1 -6 6 -14 6 -8 10 -23 8 -34 -2 -10 4 -27 12 -38 14 -18 14 -18 -6
-2 -19 17 -44 24 -44 13 0 -13 24 -55 32 -55 5 0 6 -5 3 -10 -4 -6 -11 -7 -17
-4 -6 4 -6 -1 1 -14 13 -25 14 -35 3 -28 -7 4 -8 -28 -2 -44 1 -3 2 -9 1 -13
-1 -5 9 -6 21 -2 17 5 19 4 8 -4 -12 -9 -12 -11 3 -17 15 -5 16 -8 3 -18 -8
-6 -16 -20 -18 -31 -2 -11 -7 -23 -13 -27 -6 -5 -5 -8 4 -8 11 0 11 -3 1 -15
-7 -9 -10 -18 -6 -22 3 -3 6 -1 6 6 0 7 5 9 10 6 8 -5 7 -12 -2 -23 -12 -14
-10 -14 10 -3 13 7 26 10 30 7 3 -3 -1 -6 -9 -6 -10 0 -11 -3 -2 -8 8 -5 8
-12 -2 -25 -8 -12 -15 -14 -20 -8 -3 6 -1 11 4 11 6 0 11 5 11 12 0 17 -23 -7
-26 -26 -1 -10 5 -13 22 -10 30 5 31 -9 3 -37 l-21 -21 22 7 c17 5 21 4 15 -6
-6 -9 -4 -11 7 -6 16 6 19 -8 5 -30 -4 -6 -3 -14 2 -17 8 -5 8 -14 2 -45 -1
-2 -13 4 -28 13 -27 17 -28 17 -8 -1 11 -10 21 -25 23 -33 2 -8 10 -19 18 -23
8 -5 12 -13 8 -18 -3 -5 3 -17 13 -27 10 -9 14 -14 9 -10 -15 12 -26 9 -24 -5
2 -6 12 -18 23 -25 20 -13 20 -13 -2 -9 -15 3 -23 -1 -26 -15 -4 -13 -10 -17
-18 -12 -8 4 -10 3 -5 -5 5 -7 12 -9 19 -3 7 5 21 12 31 16 15 5 17 4 8 -7 -7
-8 -9 -17 -5 -21 4 -4 0 -4 -9 -1 -9 4 -19 1 -24 -6 -4 -7 -3 -10 4 -5 6 3 13
2 17 -4 4 -6 10 -8 14 -6 4 3 13 -5 21 -17 11 -19 11 -20 -1 -11 -30 23 -45
23 -45 -2 0 -18 3 -21 13 -12 8 6 15 9 16 7 1 -2 9 -13 17 -24 14 -19 14 -19
-3 -6 -9 8 -20 11 -24 7 -8 -8 27 -35 42 -32 5 2 7 1 3 -1 -5 -3 -8 -11 -8
-19 0 -8 -4 -14 -9 -14 -5 0 -8 7 -7 16 0 9 -5 18 -12 20 -7 1 -8 0 -2 -3 5
-2 10 -9 10 -14 0 -6 -5 -7 -12 -3 -6 4 -8 3 -4 -4 3 -5 3 -12 -1 -15 -5 -2
-2 -2 5 -1 7 2 15 -3 19 -12 3 -9 15 -19 26 -23 20 -8 20 -8 -1 -13 -14 -4
-20 -2 -15 4 3 7 1 8 -5 4 -21 -13 -13 -27 13 -22 24 4 24 4 9 -20 -9 -13 -12
-24 -6 -24 6 0 12 3 15 8 2 4 2 1 1 -6 -2 -7 3 -15 11 -18 11 -5 12 -11 5 -24
-12 -23 -13 -33 -1 -26 10 6 9 -12 -1 -29 -8 -14 -4 -51 9 -67 6 -7 9 -22 8
-34 -1 -14 4 -21 14 -20 10 1 15 -8 16 -24 0 -14 5 -24 12 -23 15 3 10 -26 -6
-36 -10 -6 -9 -10 4 -15 15 -5 15 -9 4 -23 -13 -15 -12 -15 8 -5 31 17 38 15
16 -5 -10 -10 -17 -17 -15 -16 8 4 32 -26 32 -39 0 -10 -2 -10 -9 1 -6 9 -8 4
-8 -17 1 -17 6 -30 12 -29 5 1 9 -6 7 -16 -2 -9 2 -17 8 -17 6 0 9 4 6 9 -4 5
4 7 15 4 20 -6 20 -7 -7 -19 l-29 -12 34 3 c18 2 30 1 27 -2 -3 -4 2 -16 11
-27 17 -20 17 -20 0 -6 -16 12 -20 12 -28 -1 -8 -10 -9 -7 -5 11 3 14 3 19 0
12 -3 -6 -10 -9 -16 -6 -5 3 -2 -9 8 -27 10 -19 17 -40 15 -47 -3 -16 17 -42
33 -42 7 0 6 4 -2 9 -11 7 -11 9 1 14 10 4 14 0 13 -11 -3 -21 33 -51 56 -47
10 2 18 -1 18 -7 0 -5 -6 -8 -14 -5 -8 3 -20 0 -26 -8 -14 -17 -22 -57 -9 -50
9 6 13 -7 10 -33 -1 -6 2 -12 7 -12 12 0 10 43 -3 52 -15 12 7 10 25 -2 8 -5
10 -10 3 -10 -12 0 -12 -17 0 -38 5 -7 13 -10 18 -6 12 7 -8 -31 -30 -58 -12
-16 -11 -16 12 -5 14 6 23 15 21 19 -3 5 0 8 6 8 6 0 8 6 4 13 -4 6 -3 8 2 4
4 -4 9 -20 10 -35 3 -50 4 -53 16 -46 6 4 8 3 4 -4 -3 -6 2 -18 11 -28 17 -17
17 -18 1 -11 -10 3 -18 3 -18 -2 0 -16 13 -20 32 -10 18 9 18 8 8 -10 -6 -12
-13 -21 -16 -21 -3 0 -2 6 2 13 5 7 1 7 -12 -3 -29 -22 -30 -24 -12 -17 10 3
20 2 23 -3 3 -4 1 -10 -4 -12 -5 -1 -2 -10 7 -18 14 -13 15 -12 9 3 -4 10 -3
16 2 12 5 -3 12 -1 16 5 3 5 1 10 -6 10 -7 0 -10 3 -6 6 15 16 25 -8 12 -32
-15 -30 -10 -54 11 -54 8 0 14 -5 14 -11 0 -5 -4 -8 -9 -4 -5 3 -12 1 -15 -4
-4 -5 4 -8 17 -7 16 2 23 -3 24 -16 2 -15 -1 -17 -12 -8 -10 8 -15 8 -21 -1
-4 -8 -3 -9 5 -5 6 4 14 0 17 -8 3 -9 10 -16 16 -16 5 0 7 4 4 8 -3 5 2 9 10
9 10 0 13 -6 9 -16 -4 -9 -9 -27 -11 -41 -3 -18 -2 -21 5 -10 5 8 8 17 5 21
-2 4 1 11 8 16 16 10 42 14 33 5 -4 -4 -11 -7 -16 -7 -5 0 -8 -4 -6 -10 1 -5
7 -9 14 -9 6 1 9 -5 6 -12 -6 -17 -20 -18 -26 -1 -2 6 -4 -2 -3 -19 0 -23 5
-30 15 -26 10 4 12 1 6 -8 -6 -9 -4 -11 5 -5 9 5 11 1 6 -16 -3 -13 -3 -18 0
-11 3 6 10 9 16 6 6 -4 6 2 -1 14 -6 12 -18 25 -27 30 -14 8 -14 10 4 14 16 4
19 2 15 -10 -5 -11 -3 -13 7 -7 8 5 11 4 7 -1 -3 -6 -2 -16 3 -24 5 -8 4 -22
-2 -34 -10 -18 -9 -19 4 -8 13 10 17 10 22 -3 4 -10 2 -14 -5 -9 -8 4 -8 1 0
-13 6 -13 7 -23 1 -29 -6 -6 -2 -10 10 -11 11 -1 20 3 20 8 0 6 -4 8 -8 5 -5
-3 -9 1 -9 8 0 22 26 7 29 -17 2 -16 9 -21 23 -19 15 2 17 0 6 -6 -10 -8 -9
-13 9 -25 12 -8 16 -17 10 -19 -8 -2 -7 -12 3 -31 10 -19 17 -24 21 -15 3 7 3
3 1 -9 -3 -12 0 -25 6 -29 7 -4 9 -3 5 4 -3 6 -3 13 2 16 4 2 8 -4 9 -13 1
-10 -8 -24 -20 -30 -21 -11 -21 -11 3 -5 23 6 24 6 10 -12 -14 -18 -14 -18 2
-5 10 7 16 16 14 20 -3 4 0 13 5 21 9 13 10 13 8 0 -4 -22 22 -70 34 -63 6 3
7 1 3 -5 -3 -6 4 -18 16 -26 12 -9 18 -16 13 -16 -17 1 -41 24 -57 54 -12 23
-16 26 -21 12 -4 -9 -3 -15 2 -12 15 10 22 -26 9 -43 -11 -14 -11 -14 4 -3 14
11 18 10 31 -8 8 -11 18 -20 23 -19 23 4 35 -3 49 -31 9 -17 13 -30 9 -30 -4
0 -1 -7 6 -15 11 -13 10 -14 -4 -9 -16 6 -20 17 -16 44 1 11 -1 12 -10 4 -9
-9 -9 -17 1 -35 7 -13 12 -27 11 -31 -3 -10 31 3 41 16 5 7 7 3 5 -9 -2 -11 3
-20 10 -20 15 0 33 -26 26 -37 -3 -4 0 -8 7 -8 8 0 8 -4 -1 -15 -11 -13 -10
-15 6 -12 11 1 26 7 34 12 13 7 13 6 2 -7 -11 -13 -8 -19 20 -36 27 -18 29
-21 11 -19 -12 0 -19 5 -17 9 9 14 -7 9 -22 -7 -12 -12 -13 -15 -2 -16 7 -1
18 -2 23 -4 6 -1 15 -3 21 -3 7 -1 15 -10 18 -19 6 -16 6 -16 -11 0 -18 15
-19 15 -20 -6 0 -12 1 -16 4 -9 3 6 9 9 14 6 6 -3 5 -11 -2 -20 -19 -23 2 -16
23 9 18 19 19 20 16 3 -2 -12 4 -20 16 -22 30 -4 37 -18 20 -40 -15 -18 -15
-18 -5 3 8 16 7 22 -5 27 -12 5 -14 1 -9 -17 5 -18 3 -17 -10 6 -22 38 -29 34
-8 -5 9 -18 16 -37 15 -41 -1 -4 8 -1 21 7 21 15 23 14 24 -7 2 -15 0 -18 -6
-9 -7 11 -9 11 -14 -1 -6 -15 9 -17 30 -4 7 5 9 1 6 -13 -3 -11 -9 -18 -13
-15 -10 6 -7 -22 4 -32 4 -4 6 -1 4 7 -2 11 4 14 26 12 20 -3 26 0 21 9 -6 8
-4 10 4 5 7 -5 10 -11 7 -14 -3 -3 -1 -11 5 -18 7 -8 6 -14 -2 -20 -7 -4 -9
-3 -6 3 7 11 -22 28 -31 18 -3 -3 0 -5 8 -5 10 0 10 -3 1 -14 -9 -11 -9 -16 0
-22 8 -5 9 -3 4 6 -5 8 -3 11 6 8 23 -8 49 10 42 30 -7 18 -5 17 17 -12 8 -11
10 -17 4 -13 -6 3 -18 -3 -27 -14 -13 -15 -15 -24 -7 -37 9 -15 10 -15 8 3 -2
14 4 21 19 23 13 2 23 -1 23 -7 0 -24 19 -52 31 -45 3 2 6 -4 6 -12 0 -11 -6
-9 -23 7 -13 12 -22 26 -21 32 1 5 -4 12 -11 14 -11 4 -12 1 -3 -15 6 -10 7
-23 3 -27 -4 -3 0 -5 8 -3 11 2 14 -4 12 -22 -1 -18 1 -21 7 -11 5 7 13 11 19
7 6 -3 15 2 21 11 14 24 14 7 0 -18 -5 -11 -15 -16 -21 -13 -7 4 -8 3 -4 -5 4
-6 12 -9 17 -6 5 4 9 0 9 -7 0 -10 3 -9 9 2 6 8 8 17 5 21 -2 4 0 10 5 13 14
9 6 -41 -10 -61 -13 -16 -12 -17 3 -4 16 12 19 10 27 -10 8 -19 10 -20 12 -6
3 32 4 35 10 41 4 4 6 -4 6 -16 1 -49 2 -53 15 -40 7 7 17 12 23 12 5 0 4 -4
-3 -9 -12 -7 -11 -13 2 -37 8 -16 15 -24 16 -19 0 6 10 11 21 12 12 1 19 -1
15 -4 -3 -3 4 -13 17 -22 21 -15 26 -17 47 -20 7 -1 6 -6 -2 -14 -10 -11 -16
-9 -33 11 -18 20 -23 22 -30 11 -5 -8 -5 -11 0 -7 9 8 35 -15 35 -31 0 -15 13
-14 29 1 8 9 11 9 9 2 -4 -15 53 -65 65 -57 5 3 3 10 -4 15 -11 8 -11 9 1 5 8
-2 14 -10 12 -17 -2 -8 3 -10 14 -6 14 5 15 4 5 -8 -10 -11 -7 -16 16 -24 22
-8 24 -11 8 -11 -16 -1 -17 -3 -5 -10 8 -6 18 -7 23 -4 5 3 4 -4 -2 -15 -14
-26 -14 -43 0 -19 6 9 14 15 20 12 5 -4 9 -1 9 4 0 6 4 11 9 11 4 0 9 -15 9
-32 0 -62 1 -65 12 -48 8 12 10 12 16 -3 3 -9 10 -17 15 -17 15 0 69 -52 63
-61 -3 -5 0 -9 6 -9 7 0 10 7 6 15 -3 8 -1 15 4 15 9 0 14 -15 11 -33 -1 -5 3
-6 8 -3 5 3 7 15 4 25 -7 28 12 33 33 8 l19 -22 -24 20 -24 20 6 -24 c3 -14 1
-32 -6 -40 -8 -10 -9 -13 0 -8 6 4 13 2 15 -3 2 -6 12 -12 22 -14 11 -1 20
-11 22 -20 1 -10 5 -21 8 -24 4 -3 5 4 3 15 -4 28 -27 54 -40 46 -6 -4 -7 -1
-2 7 6 9 4 11 -5 5 -9 -5 -11 -4 -6 3 10 16 12 16 39 -12 14 -14 28 -22 31
-18 4 3 4 -1 1 -10 -3 -8 0 -22 7 -29 8 -8 17 -22 21 -32 6 -17 8 -17 39 -1
l33 17 -19 -22 c-11 -11 -16 -24 -13 -28 4 -3 7 -1 7 5 0 7 8 12 19 12 13 0
19 -7 18 -25 0 -13 -3 -22 -8 -19 -14 8 -10 -2 5 -15 12 -10 14 -8 12 13 -2
17 2 26 10 26 8 0 14 -11 15 -27 0 -27 1 -27 9 -5 10 22 30 31 30 11 0 -5 4
-7 10 -4 6 3 10 1 10 -4 0 -14 -13 -14 -27 0 -9 9 -11 8 -9 -4 3 -25 12 -30
35 -17 14 7 21 7 21 0 0 -5 -4 -10 -10 -10 -5 0 -10 -4 -10 -10 0 -5 7 -6 17
-3 10 4 14 2 10 -4 -5 -7 2 -10 18 -8 16 1 24 -2 22 -9 -3 -6 -10 -10 -16 -8
-7 1 -9 -2 -6 -8 4 -6 10 -9 13 -6 8 9 33 -15 26 -25 -3 -5 2 -6 12 -2 15 5
15 7 -1 16 -14 8 -15 11 -4 18 8 5 19 9 24 9 6 0 3 -5 -5 -10 -13 -9 -13 -10
0 -11 8 -1 18 -1 23 0 4 0 7 -4 7 -10 0 -5 4 -8 8 -5 12 7 38 -12 29 -21 -5
-4 -11 -2 -15 4 -5 9 -12 5 -21 -10 -12 -19 -12 -20 0 -10 16 13 32 6 43 -17
3 -8 4 -5 2 8 -2 12 0 22 5 22 8 0 13 -21 11 -42 -1 -3 5 -9 14 -12 12 -4 12
-2 4 14 -6 11 -7 20 -1 20 11 0 25 -30 22 -50 -2 -13 -1 -13 8 0 8 11 11 12
11 2 0 -10 4 -9 16 2 16 17 39 12 28 -5 -3 -5 -9 -7 -14 -4 -4 3 -10 -1 -13
-8 -3 -7 3 -13 13 -13 10 0 16 4 13 8 -2 5 7 7 22 4 21 -4 25 -2 21 10 -3 9
-2 12 5 9 6 -4 8 -13 5 -21 -3 -8 1 -14 9 -14 8 0 15 -4 15 -8 0 -14 -29 -10
-34 5 -7 16 -26 8 -26 -10 0 -8 3 -8 9 1 7 11 9 11 14 -2 4 -9 14 -13 26 -11
13 2 28 -5 39 -20 19 -23 35 -27 59 -12 9 6 11 3 7 -8 -4 -11 -2 -14 9 -9 8 3
18 0 23 -7 4 -8 3 -10 -4 -5 -7 4 -12 2 -12 -3 0 -15 11 -14 30 4 14 13 17 13
17 0 0 -8 -3 -12 -7 -10 -4 2 -7 -2 -7 -10 0 -8 4 -12 8 -9 4 2 9 1 12 -3 2
-5 2 -2 1 5 -2 6 1 12 7 12 6 0 8 4 5 8 -3 5 1 9 9 9 8 0 11 -5 7 -11 -4 -6
-7 -23 -8 -37 0 -20 4 -25 15 -21 11 4 11 7 3 10 -10 3 -10 7 0 20 11 13 11
14 -2 7 -9 -5 -8 0 4 13 21 24 36 31 16 7 -10 -12 -8 -17 11 -25 23 -10 23
-10 1 -6 -13 2 -20 0 -16 -6 4 -5 17 -8 30 -5 20 3 22 2 13 -10 -9 -11 -9 -17
0 -26 8 -8 14 -8 19 -2 10 14 32 17 32 5 0 -5 5 -10 11 -10 5 0 7 5 4 10 -3 6
-1 10 4 10 6 0 11 -4 11 -10 0 -14 27 -12 34 3 4 9 1 -21 -3 -41 -1 -2 -8 4
-17 13 -9 9 -19 13 -22 10 -3 -3 3 -12 14 -19 16 -13 21 -12 37 1 11 11 17 12
17 4 0 -7 5 -9 12 -5 7 4 8 3 4 -5 -4 -6 -11 -9 -16 -6 -5 3 -11 1 -15 -4 -6
-10 27 -7 44 4 5 3 16 -4 24 -15 7 -11 17 -17 20 -13 4 3 1 13 -6 22 -11 14
-10 14 5 2 15 -11 21 -11 35 0 15 11 16 11 6 -1 -16 -18 -17 -34 -1 -24 7 4 8
3 4 -4 -4 -7 -1 -12 9 -12 9 0 14 4 11 8 -3 5 1 9 9 9 11 0 12 -4 3 -14 -8
-10 -7 -13 8 -10 11 1 25 6 32 11 8 5 12 3 10 -6 -2 -7 2 -12 9 -11 7 2 10 -4
6 -13 -5 -13 -7 -13 -14 -2 -6 9 -9 9 -9 1 0 -17 12 -22 35 -13 28 10 79 -16
71 -37 -5 -13 -4 -14 9 -3 12 10 13 15 3 28 -12 14 -10 14 10 1 12 -8 22 -17
22 -22 0 -4 -5 -5 -11 -2 -6 4 -5 -2 2 -14 15 -22 31 -9 22 18 -4 13 -3 13 5
2 5 -7 12 -9 14 -5 5 9 1 -7 -9 -36 -4 -13 -4 -13 6 0 10 14 12 13 15 -9 0 -5
4 -12 8 -16 9 -9 5 17 -6 33 -17 27 43 3 74 -30 18 -18 29 -28 26 -22 -11 22
40 41 62 24 1 -2 6 -3 11 -4 5 0 12 -4 16 -8 4 -4 13 -4 20 -2 7 3 15 -2 19
-12 5 -13 4 -14 -7 -6 -10 9 -14 8 -14 -3 0 -8 3 -13 5 -10 3 3 12 -1 20 -7 7
-7 27 -13 44 -14 26 -2 28 -1 13 10 -17 12 -17 13 -1 19 9 4 15 3 12 -2 -3 -5
1 -12 10 -15 8 -3 13 -10 10 -15 -4 -5 2 -8 11 -6 10 2 24 4 31 4 7 1 11 5 8
9 -2 4 -1 14 3 21 6 10 10 9 14 -3 3 -8 2 -18 -3 -21 -6 -4 -10 -11 -10 -17 0
-6 12 -1 27 13 l26 24 -16 -25 c-24 -35 -21 -47 4 -19 13 16 19 18 16 7 -3 -9
0 -22 6 -30 7 -7 11 -11 10 -9 -2 2 2 10 9 18 9 11 7 12 -8 7 -17 -6 -18 -5
-3 7 9 8 20 21 23 29 3 8 4 5 2 -8 -4 -21 6 -27 42 -23 11 2 17 -12 13 -32 -1
-5 3 -6 8 -3 5 4 12 2 16 -4 4 -7 12 -7 25 0 25 13 33 13 24 -2 -4 -6 -3 -8 4
-4 6 3 14 -3 17 -15 4 -11 9 -18 12 -16 2 3 -3 20 -13 39 -16 31 -16 32 1 18
9 -8 21 -23 25 -35 7 -17 9 -17 9 -2 1 9 7 17 15 17 8 0 17 6 19 13 4 7 6 8 6
1 1 -6 -6 -17 -14 -24 -8 -7 -15 -18 -15 -24 0 -6 5 -3 11 7 8 14 14 16 25 6
8 -6 14 -8 14 -4 0 4 6 3 13 -2 6 -6 22 -9 35 -8 17 1 21 -2 17 -14 -5 -12 -3
-13 6 -4 16 16 4 31 -26 28 -16 -2 -23 1 -19 7 5 7 2 8 -7 3 -11 -7 -12 -6 -2
7 7 8 10 18 6 21 -3 4 -1 7 6 7 6 0 11 -7 9 -16 -2 -10 3 -19 10 -21 8 -3 10
2 6 14 -5 17 -5 17 6 1 12 -20 36 -25 24 -6 -4 7 -3 8 4 4 6 -4 8 -14 5 -24
-6 -15 -4 -15 15 2 12 11 22 16 22 11 0 -4 7 -2 15 5 10 9 15 9 15 1 0 -6 -5
-11 -11 -11 -5 0 -7 -5 -4 -11 4 -6 10 -8 13 -5 3 3 11 1 19 -6 11 -9 13 -8
11 3 -2 8 -7 17 -11 20 -5 3 -2 9 7 12 9 4 15 1 13 -6 -1 -7 3 -11 9 -10 6 1
11 -4 11 -12 0 -8 -4 -12 -9 -9 -4 3 -8 1 -8 -4 0 -5 11 -9 25 -9 14 0 25 4
25 9 0 5 -4 7 -8 4 -5 -3 -9 1 -9 9 0 10 4 12 12 5 7 -5 15 -7 19 -3 4 4 9 -3
13 -15 4 -17 11 -21 30 -18 18 4 26 -1 33 -20 12 -30 20 -32 12 -2 -4 16 -2
19 8 13 9 -5 11 -4 6 4 -4 6 -12 8 -18 5 -7 -5 -8 -2 -3 6 6 9 4 11 -5 5 -9
-6 -11 -4 -5 4 5 9 10 10 18 2 17 -17 31 -13 17 4 -10 13 -11 18 -1 28 10 9
11 9 6 -4 -8 -21 20 -43 46 -36 16 4 18 3 8 -9 -18 -21 4 -17 29 6 23 21 32
14 10 -8 -9 -9 -9 -12 1 -12 7 0 9 -5 5 -12 -4 -7 -3 -8 5 -4 6 4 8 12 5 18
-4 6 -1 8 7 6 8 -3 13 -10 12 -15 -1 -6 7 -10 18 -9 10 0 19 4 19 9 0 4 0 12
0 18 0 5 -5 7 -11 3 -8 -4 -7 -9 2 -15 10 -6 10 -9 2 -9 -6 0 -15 5 -19 11 -9
16 18 30 33 17 12 -10 17 -4 14 15 -1 5 3 6 9 2 8 -5 7 -12 -2 -23 -11 -13
-10 -15 4 -9 10 3 20 1 24 -5 5 -7 2 -8 -6 -3 -9 5 -11 4 -6 -4 11 -17 26 -4
20 17 -5 15 -4 15 9 -1 14 -17 15 -17 22 0 5 10 7 22 6 27 -1 5 5 4 13 -4 19
-15 20 -21 4 -18 -6 2 -13 -6 -15 -17 -3 -16 -2 -17 6 -6 8 12 12 12 24 2 13
-10 15 -9 10 11 -3 16 -2 19 5 10 5 -8 13 -14 17 -14 4 0 12 6 17 14 8 10 9 9
4 -4 -4 -14 -1 -16 18 -8 13 5 27 6 30 3 3 -4 6 0 6 8 0 11 2 11 10 -1 5 -8 7
-24 4 -35 -6 -20 -6 -20 9 0 11 14 12 22 4 27 -6 4 -8 11 -3 15 5 4 11 2 13
-5 3 -6 10 -9 16 -5 18 11 38 12 31 2 -3 -5 0 -9 7 -9 10 0 10 -3 1 -12 -15
-15 -16 -28 -2 -28 6 0 9 6 8 13 -2 8 9 11 35 9 20 -1 37 2 37 7 0 6 -7 8 -15
5 -8 -4 -15 -1 -15 6 0 10 -4 9 -17 -1 -15 -11 -16 -11 -6 1 14 16 93 25 93
11 0 -5 -10 -7 -22 -3 -20 5 -21 3 -11 -10 7 -8 9 -19 5 -24 -4 -4 1 -2 11 6
19 14 90 23 82 10 -3 -5 3 -7 12 -6 18 3 21 12 7 24 -4 4 -4 1 1 -7 5 -10 4
-12 -4 -7 -20 13 -2 26 23 16 13 -5 27 -6 31 -2 3 3 3 -1 0 -10 -4 -9 -2 -19
4 -23 7 -4 8 1 4 12 -6 15 -4 16 9 5 11 -9 18 -10 23 -2 3 6 12 7 18 3 18 -11
57 -11 50 0 -3 5 4 6 18 2 18 -5 20 -4 9 4 -16 11 -24 55 -8 45 4 -3 6 -9 3
-14 -9 -15 33 -32 53 -22 9 5 27 8 40 6 14 -3 25 2 29 11 3 11 12 13 27 9 19
-6 20 -5 6 11 -14 17 -14 17 7 4 19 -11 20 -15 8 -22 -8 -4 -19 -6 -24 -2 -15
9 -25 -15 -12 -28 9 -9 11 -8 6 3 -6 18 29 21 55 6 13 -9 13 -8 1 7 -17 21 -3
22 27 1 12 -8 22 -10 22 -5 0 6 -5 11 -11 11 -5 0 -7 4 -4 10 3 5 0 7 -8 4 -8
-3 -20 3 -28 13 -13 16 -12 17 3 5 17 -14 43 -8 33 8 -3 5 -1 12 5 15 6 4 9 1
8 -6 -2 -7 2 -13 9 -14 6 0 15 -3 19 -7 3 -4 -3 -6 -14 -3 -19 3 -20 1 -9 -15
10 -17 13 -17 20 -4 7 13 11 13 25 2 15 -11 15 -11 4 3 -10 14 -10 18 2 22 9
4 18 1 22 -5 4 -7 3 -8 -4 -4 -8 5 -10 1 -5 -9 4 -12 8 -13 13 -5 5 7 13 9 20
5 8 -5 11 -4 7 2 -8 13 39 46 53 38 5 -3 7 -12 4 -19 -3 -8 -1 -17 5 -21 6 -3
9 0 5 8 -5 13 5 17 49 18 9 0 17 4 17 9 0 9 -32 6 -49 -4 -5 -3 -11 0 -14 7
-3 8 4 12 22 11 14 0 29 4 33 10 5 7 8 6 8 -4 0 -13 2 -13 11 0 9 13 10 12 5
-3 -5 -15 -1 -16 26 -12 41 8 44 11 27 32 -13 17 -13 17 4 4 16 -13 20 -13 28
0 6 10 9 11 9 1 0 -7 5 -10 12 -6 7 4 8 3 4 -5 -4 -6 -11 -9 -16 -6 -5 3 -13
-3 -19 -13 -7 -14 -6 -19 4 -19 7 0 11 7 8 14 -3 8 -2 13 3 12 5 -1 11 0 14 1
15 5 47 11 63 11 9 0 17 5 17 10 0 6 -4 8 -9 5 -5 -3 -14 1 -21 9 -9 10 -9 15
-1 15 6 0 11 -5 11 -11 0 -6 6 -7 12 -2 7 4 26 8 41 9 24 2 26 0 16 -12 -6 -8
-9 -17 -5 -21 3 -3 6 0 6 8 0 12 2 11 11 -1 9 -13 10 -12 5 3 -3 9 -2 18 2 18
34 6 52 5 52 -5 0 -6 5 -3 11 6 5 10 16 15 24 12 8 -4 15 -1 15 6 0 6 -5 8
-12 4 -6 -4 -8 -3 -4 4 3 5 3 12 -1 15 -5 2 -2 2 6 0 9 -2 11 2 7 14 -10 26 9
5 29 -32 11 -20 15 -23 12 -9 -2 12 4 31 15 45 11 13 17 18 13 10 -4 -7 -1
-18 6 -23 11 -8 10 -9 -3 -4 -10 3 -18 1 -18 -5 0 -6 8 -9 18 -7 9 2 16 11 16
20 -1 11 6 15 22 13 13 -1 31 3 41 10 19 14 56 8 46 -9 -3 -6 -3 -8 2 -4 4 4
15 2 24 -5 14 -11 15 -10 1 7 -14 18 -13 18 10 12 14 -4 20 -4 13 1 -8 6 -8
14 2 33 8 14 14 19 15 12 0 -7 4 -11 9 -8 5 4 8 -2 7 -11 -2 -10 -1 -12 1 -5
3 6 13 12 24 12 11 0 18 -4 14 -9 -6 -11 34 -6 44 5 3 4 -2 4 -12 1 -11 -4
-20 -1 -23 8 -3 8 -12 11 -22 7 -14 -5 -15 -4 -2 10 12 12 17 13 22 3 4 -7 19
-11 35 -8 16 2 33 5 40 5 6 1 9 7 6 15 -4 10 -9 11 -18 3 -9 -8 -14 -7 -18 3
-8 21 33 14 49 -8 8 -10 14 -13 14 -7 0 7 5 12 11 12 5 0 7 -6 3 -12 -4 -7 2
-5 13 5 11 9 24 14 28 10 5 -5 3 0 -4 9 -12 16 -14 16 -38 1 -25 -17 -26 -17
-15 4 6 11 8 24 4 29 -4 5 1 2 11 -5 9 -7 17 -11 17 -7 0 4 13 0 30 -9 26 -13
29 -13 24 0 -3 8 -10 13 -14 10 -4 -3 -13 2 -19 9 -9 10 -9 16 -1 21 6 4 10 3
9 -2 -4 -22 3 -24 23 -7 12 10 18 13 14 7 -4 -7 -3 -13 3 -13 5 0 15 8 20 18
6 9 11 12 11 6 0 -5 7 -19 15 -30 14 -18 15 -18 9 0 -6 16 -5 17 17 7 22 -11
22 -11 6 2 -11 9 -14 18 -8 21 6 4 9 12 7 19 -1 7 -1 9 1 5 9 -15 25 -8 19 8
-5 13 -4 14 7 6 10 -9 19 -8 35 4 12 8 22 12 22 7 0 -4 4 -2 9 5 7 11 9 11 14
-1 4 -11 0 -15 -14 -12 -12 3 -17 0 -13 -7 4 -7 3 -8 -4 -4 -8 5 -10 1 -5 -9
5 -13 7 -14 14 -3 5 7 14 13 21 13 7 0 13 10 12 22 -1 26 13 20 27 -11 9 -19
9 -19 5 4 -5 22 -2 25 24 25 17 1 30 -3 30 -8 0 -6 9 2 20 16 11 14 20 32 20
41 0 9 5 17 10 17 6 1 15 3 20 4 6 1 17 3 26 4 8 0 12 6 9 11 -3 6 -1 10 4 10
6 0 11 -4 11 -9 0 -11 -31 -37 -39 -33 -3 2 -7 -1 -9 -7 -5 -14 15 -14 24 0 4
8 9 7 15 -2 8 -13 11 -7 8 17 0 3 8 12 18 21 10 8 12 12 6 8 -8 -4 -11 -1 -7
8 2 7 18 14 34 14 26 0 28 -3 17 -16 -11 -14 -10 -14 6 -2 19 15 24 47 5 35
-7 -4 -8 -3 -4 5 10 16 39 -6 29 -23 -3 -6 -1 -6 7 1 20 18 22 46 4 39 -9 -3
-12 -1 -9 5 8 13 30 6 31 -9 1 -7 2 -18 3 -24 0 -7 8 -3 16 9 10 14 22 20 33
17 14 -5 14 -4 2 5 -8 5 -11 13 -7 17 3 4 14 1 24 -7 15 -12 16 -12 8 1 -14
23 -16 50 -4 50 5 0 7 -4 4 -10 -3 -5 -1 -10 5 -10 6 0 8 -4 5 -10 -3 -5 -1
-10 5 -10 6 0 8 11 6 24 -4 20 -1 24 12 19 9 -4 20 -11 24 -17 5 -7 8 -4 8 7
0 9 -6 17 -12 17 -7 0 -5 5 5 11 9 6 15 15 11 21 -4 7 0 7 12 0 11 -5 25 -7
32 -5 8 3 10 -1 5 -14 -3 -10 -3 -15 1 -11 4 3 9 14 10 24 2 10 9 20 16 22 8
3 10 0 5 -8 -6 -9 -4 -11 4 -6 7 5 10 14 7 21 -5 13 20 30 38 26 5 -1 6 5 2
14 -3 9 -2 13 4 10 6 -3 13 1 16 9 8 22 21 20 29 -5 6 -19 7 -20 20 -2 7 10
18 19 24 19 6 1 16 2 22 3 5 0 7 6 3 12 -3 6 -9 7 -13 3 -10 -14 -28 -14 -28
0 0 7 7 13 16 12 9 -1 15 6 13 14 -1 8 7 4 18 -10 22 -28 25 -24 10 14 -6 17
-6 27 2 32 6 4 8 3 4 -4 -7 -12 19 -42 37 -42 7 0 7 4 -2 9 -15 10 -25 41 -13
40 20 -3 42 2 41 9 -4 25 2 34 14 23 8 -6 18 -7 22 -3 5 4 5 2 2 -4 -3 -6 -1
-11 6 -11 7 0 13 9 13 19 0 13 -5 16 -18 12 -10 -3 -18 -1 -18 4 0 5 10 9 23
8 12 -1 21 -7 20 -12 -1 -6 4 -11 11 -11 8 0 12 11 11 29 -1 22 1 26 12 17 7
-6 10 -15 7 -20 -3 -5 2 -6 11 -2 9 3 13 9 8 12 -5 3 -13 15 -17 26 -7 18 -5
18 14 -2 11 -13 26 -23 32 -23 7 0 3 7 -8 15 -18 14 -18 14 6 16 14 1 32 1 40
0 13 -2 13 0 1 8 -8 5 -27 8 -41 6 -18 -2 -27 2 -27 11 0 10 4 11 11 4 13 -13
29 -13 20 1 -4 8 0 8 15 0 17 -10 21 -9 21 4 0 10 -5 13 -12 9 -7 -4 -8 -3 -4
5 6 9 11 9 21 1 10 -8 21 -7 43 4 16 8 33 12 37 8 5 -4 5 -1 1 6 -4 7 -12 10
-17 7 -5 -4 -9 1 -9 10 0 9 -4 14 -10 10 -5 -3 -7 -12 -4 -19 8 -21 -23 -27
-38 -8 -12 15 -11 16 4 4 11 -9 18 -10 23 -2 3 5 1 10 -4 10 -6 0 -3 8 7 18
15 16 18 16 30 2 12 -13 13 -12 9 8 -4 19 -3 21 8 12 8 -6 11 -18 8 -26 -3 -8
0 -14 6 -14 6 0 10 6 9 13 -2 6 3 11 10 9 8 -1 11 2 7 8 -3 5 0 13 9 16 20 8
29 36 14 46 -11 6 -10 8 0 8 7 0 10 5 7 10 -3 6 -1 10 5 10 7 0 10 -7 7 -15
-4 -8 -2 -17 3 -20 5 -3 6 -13 3 -23 -3 -9 -3 -14 1 -10 12 10 15 62 5 75 -7
7 -6 14 1 18 6 4 9 2 8 -3 -2 -6 2 -10 7 -10 6 0 9 4 7 10 -1 5 2 7 8 3 6 -4
4 -16 -6 -33 -15 -25 -15 -26 1 -7 9 11 23 19 32 17 15 -3 15 -2 0 13 -16 15
-13 50 3 40 5 -3 11 -1 15 5 4 6 10 8 15 5 5 -3 12 0 15 5 5 8 13 6 25 -5 16
-15 17 -14 16 7 -1 16 5 23 18 23 22 0 33 20 17 30 -6 3 -11 11 -11 17 0 6 6
6 15 -2 18 -15 37 -2 41 25 2 13 -1 14 -12 4 -7 -6 -11 -15 -8 -20 3 -5 0 -9
-5 -9 -6 0 -11 7 -11 15 0 8 5 15 11 15 5 0 7 5 3 12 -5 7 -3 8 6 3 9 -5 10
-1 6 16 -5 16 -1 13 12 -10 15 -27 20 -30 25 -17 4 10 12 14 18 10 8 -4 9 -3
5 5 -9 14 12 43 25 35 5 -3 9 0 9 6 0 7 -6 10 -12 7 -7 -2 -22 0 -33 4 l-20 9
20 -1 c36 -2 40 1 59 31 9 17 21 28 26 25 5 -3 11 4 15 15 4 11 11 18 16 14
17 -10 41 17 29 32 -9 10 -7 11 9 7 12 -3 18 -10 14 -16 -3 -5 -1 -7 5 -4 5 4
8 16 5 28 -5 16 -8 18 -15 7 -8 -11 -9 -11 -6 0 2 8 7 13 11 13 19 -3 67 31
60 42 -13 20 -11 34 3 34 7 0 11 -4 8 -9 -8 -12 19 -9 37 5 13 10 14 15 4 24
-7 7 -17 9 -21 5 -5 -4 -2 2 6 13 21 30 24 32 17 13 -3 -10 -2 -20 2 -23 12
-7 23 25 14 39 -5 7 0 4 9 -6 16 -18 17 -18 15 2 -1 11 -4 20 -7 20 -4 0 -7 7
-7 16 0 14 2 14 14 -2 7 -10 13 -23 13 -28 0 -6 4 -5 9 3 6 9 4 22 -5 37 -12
17 -12 24 -3 30 7 4 9 3 6 -3 -4 -6 4 -13 19 -16 l25 -4 -21 22 c-15 16 -17
22 -6 22 8 0 13 -4 11 -8 -8 -12 27 -20 40 -9 6 5 16 6 21 2 4 -4 3 0 -4 9
-10 14 -10 20 3 33 9 9 12 16 7 16 -5 0 -17 -9 -27 -20 -11 -12 -13 -20 -6
-20 7 0 9 -4 6 -10 -10 -16 -21 -11 -22 10 -1 11 3 20 8 20 6 0 7 5 4 10 -4 6
-1 9 7 8 8 -2 12 5 10 20 -2 22 -1 22 15 6 16 -15 17 -15 24 2 4 11 8 14 8 8
1 -6 8 -11 17 -11 14 0 14 2 -2 14 -10 7 -25 11 -34 8 -9 -3 -7 1 5 11 11 8
19 20 17 26 -2 7 3 6 12 -2 18 -14 22 -25 6 -15 -17 10 -11 -2 8 -16 9 -7 14
-9 10 -5 -4 5 -3 15 3 22 9 10 7 15 -5 20 -9 3 -16 10 -16 16 0 5 5 6 10 3 6
-3 10 1 10 10 0 10 -5 13 -12 9 -7 -4 -8 -3 -4 5 4 6 11 9 16 6 5 -3 12 0 16
6 5 9 11 7 21 -6 7 -11 13 -13 13 -6 0 7 4 9 10 6 6 -4 7 1 3 11 -4 11 -8 13
-11 6 -3 -9 -7 -8 -18 2 -8 8 -14 18 -14 22 0 5 5 3 11 -3 14 -14 39 -6 39 14
0 8 5 11 12 7 7 -5 8 -3 2 7 -12 19 -14 40 -4 34 5 -3 13 3 19 12 6 10 11 13
11 6 0 -6 -6 -18 -14 -26 -13 -12 -10 -14 17 -14 18 0 24 2 15 4 -22 5 -24 23
-3 23 8 0 15 5 15 11 0 5 -4 8 -8 5 -4 -2 -13 4 -20 14 -9 14 -9 21 0 26 7 5
8 3 3 -6 -6 -10 -4 -12 9 -7 11 5 15 3 10 -5 -4 -7 -3 -8 4 -4 7 4 12 2 12 -5
0 -7 3 -9 6 -6 4 4 -1 19 -11 34 l-18 28 27 -24 c14 -14 26 -19 26 -13 0 7 -4
12 -10 12 -5 0 -10 5 -10 11 0 6 7 8 16 5 8 -3 12 -2 9 4 -3 6 -1 10 4 10 6 0
11 9 11 21 0 11 4 18 9 15 13 -9 20 16 10 36 -6 10 -5 19 1 23 6 4 7 11 4 17
-8 13 11 3 41 -21 13 -11 12 -6 -5 13 l-25 29 25 -13 25 -13 -22 25 c-13 13
-23 28 -23 34 0 5 5 2 10 -6 9 -13 10 -13 10 0 0 13 1 13 10 0 5 -8 12 -12 15
-8 3 3 -1 13 -10 22 -9 9 -13 16 -8 16 5 0 14 -5 21 -12 16 -16 16 4 0 21 -11
11 -9 12 8 3 24 -13 35 -7 27 15 -4 11 -8 11 -13 3 -5 -8 -10 -8 -14 -2 -10
16 22 23 37 8 12 -12 14 -9 14 17 0 18 -2 26 -4 20 -7 -19 -19 -15 -20 6 -1
11 5 25 13 32 8 6 14 8 14 5 0 -4 7 0 16 8 8 9 21 13 27 9 7 -4 4 5 -6 20 -15
23 -15 26 -1 20 14 -5 15 -3 5 15 -6 11 -11 24 -11 29 1 4 8 -4 16 -20 8 -15
12 -32 9 -37 -3 -5 -1 -11 4 -14 6 -4 8 7 6 25 -4 26 -2 29 10 19 10 -8 15 -9
15 -2 0 6 -10 14 -21 17 -15 5 -18 10 -9 15 6 4 11 10 11 14 -3 21 1 28 13 23
8 -3 17 0 20 8 3 9 0 12 -8 9 -18 -7 -30 12 -15 22 8 5 9 3 4 -6 -5 -8 -3 -11
6 -8 8 3 13 11 11 17 -1 8 2 9 9 5 9 -5 10 -2 6 9 -4 11 5 25 28 43 19 14 32
30 29 35 -5 8 9 13 29 10 4 0 7 3 7 9 0 13 -6 13 -30 0 -22 -12 -33 0 -19 20
7 12 9 12 9 1 0 -10 3 -11 13 -2 8 6 16 8 19 5 3 -2 8 2 12 11 4 13 2 14 -14
5 -11 -6 -20 -9 -21 -8 -9 33 -7 39 9 26 14 -11 15 -10 9 6 -7 17 -6 17 10 5
14 -12 16 -12 8 0 -6 11 -4 13 10 7 16 -6 16 -4 4 11 -8 10 -18 21 -24 25 -6
5 -5 8 3 8 8 0 10 5 6 12 -4 7 -4 10 1 6 4 -4 15 -2 24 4 10 8 9 4 -3 -10 -11
-12 -14 -22 -8 -22 15 0 31 31 25 48 -4 10 -8 10 -21 0 -11 -9 -10 -5 3 14 11
15 24 28 29 28 5 0 4 -6 -2 -12 -7 -9 -6 -17 3 -25 11 -10 13 -8 11 10 -3 32
-15 49 -29 41 -7 -4 -2 4 11 18 12 13 19 28 15 31 -6 6 11 11 30 8 4 0 7 4 7
10 0 5 5 7 11 3 7 -4 7 1 -1 16 -10 20 -10 22 3 17 11 -4 14 0 10 16 -4 22 -4
22 11 3 9 -11 16 -15 16 -10 0 16 -21 33 -35 28 -7 -3 -16 -1 -20 5 -3 7 0 8
9 5 11 -4 14 0 11 15 -2 12 1 20 8 18 7 -1 11 6 9 18 -2 11 -1 17 3 13 3 -3 8
-14 9 -24 2 -10 9 -20 17 -22 8 -2 10 0 4 5 -15 12 -19 47 -4 37 8 -5 10 -3 4
6 -6 9 -4 12 6 8 11 -4 14 4 13 33 -2 57 -3 61 -14 54 -6 -3 -7 1 -4 10 6 14
8 14 19 -1 9 -14 14 -14 20 -4 5 9 4 11 -3 6 -7 -4 -12 -2 -12 3 0 6 7 11 15
11 9 0 15 6 14 13 -3 25 1 38 10 32 6 -3 8 4 6 16 -3 16 -1 19 13 14 13 -5 14
-3 5 6 -12 12 -37 3 -29 -10 6 -10 -31 -7 -41 3 -5 4 -3 7 2 6 24 -5 37 1 32
14 -4 10 -1 13 9 9 10 -3 14 2 14 18 0 19 -2 21 -10 9 -7 -11 -9 -10 -7 9 l1
23 18 -22 c21 -26 24 -13 4 16 -12 17 -13 21 -1 21 8 0 13 -5 12 -10 -1 -5 5
-12 13 -14 12 -4 12 -3 2 5 -8 5 -13 12 -13 16 3 20 0 26 -11 20 -9 -5 -9 -2
1 9 7 9 10 17 6 17 -4 0 -3 6 3 13 7 8 7 18 2 27 -6 8 -10 20 -10 25 1 6 5 2
11 -8 6 -10 15 -14 22 -10 7 4 4 -5 -5 -19 -15 -22 -15 -27 -3 -32 8 -3 17 0
21 6 5 7 2 8 -6 3 -8 -5 -11 -3 -8 6 3 8 10 14 16 14 5 0 14 4 19 9 5 5 3 6
-5 2 -11 -7 -17 5 -13 28 1 5 -5 6 -14 3 -8 -4 -15 -1 -15 4 0 6 10 9 23 7 28
-6 33 19 5 28 -10 3 -18 9 -18 14 0 6 10 6 25 0 19 -7 23 -6 18 5 -3 8 -9 12
-14 9 -5 -3 -6 3 -2 12 4 10 2 15 -3 11 -6 -3 -11 4 -11 16 -2 17 0 19 7 7 5
-8 10 -12 11 -7 1 4 3 12 4 17 1 6 3 15 4 20 0 6 7 9 14 8 6 -2 13 4 13 12 1
8 2 21 3 28 1 8 6 10 14 6 9 -6 8 -3 -1 8 -8 9 -19 16 -25 14 -7 -1 -9 -1 -4
1 4 3 4 9 1 15 -4 6 2 5 15 -1 17 -10 20 -9 15 4 -4 8 -1 15 4 15 6 0 10 9 9
19 0 11 -5 17 -9 15 -4 -3 -8 0 -8 5 0 10 14 15 33 12 4 -1 3 7 -3 18 -14 27
-13 31 8 25 9 -4 4 4 -13 16 -16 12 -22 20 -13 17 9 -3 22 1 29 9 13 16 21 56
9 49 -3 -2 -11 5 -18 15 -11 18 -10 19 16 9 27 -10 27 -10 7 9 -11 11 -24 17
-30 14 -5 -3 -4 2 4 11 12 16 8 22 -12 18 -5 -1 -6 3 -2 9 4 6 14 4 29 -5 23
-15 23 -15 18 12 -3 16 -10 31 -16 35 -7 5 -6 8 4 8 11 1 10 4 -4 15 -11 8
-15 15 -8 15 6 0 9 8 6 18 -5 14 -4 15 5 2 9 -13 11 -13 11 1 0 8 -6 21 -12
28 -10 11 -10 13 0 7 16 -9 16 6 0 24 -11 12 -10 12 3 2 9 -6 19 -8 24 -4 4 4
2 -4 -5 -17 -10 -19 -10 -22 1 -16 9 6 10 3 5 -11 -12 -28 -15 -74 -5 -79 4
-3 6 3 4 15 -2 11 1 22 6 25 5 4 7 10 4 15 -3 5 -1 19 6 31 8 17 8 20 -1 14
-8 -5 -11 -3 -8 6 3 8 12 13 19 11 11 -3 11 -1 2 9 -10 10 -9 16 4 31 10 11
11 18 5 18 -7 0 -12 -5 -12 -11 0 -8 -4 -8 -13 0 -10 8 -14 7 -14 -4 0 -8 5
-11 10 -8 6 3 7 1 3 -5 -12 -20 -26 -13 -23 10 2 12 12 23 21 24 10 1 21 6 24
10 4 4 -1 4 -11 1 -13 -5 -17 -3 -14 5 2 7 11 13 18 12 8 -1 15 7 15 17 0 16
-2 17 -16 4 -13 -11 -19 -12 -28 -3 -7 7 -12 16 -12 22 0 5 7 1 15 -10 13 -18
14 -16 10 19 -3 22 -1 37 6 37 5 0 7 -5 4 -10 -3 -5 -2 -10 2 -10 5 0 14 9 20
19 11 17 10 19 -7 16 -14 -3 -17 1 -13 12 5 12 3 14 -7 8 -9 -5 -11 -4 -6 4 6
9 11 9 22 0 12 -9 13 -9 9 3 -3 8 1 21 10 28 8 7 15 17 15 23 0 6 -6 3 -12 -6
-18 -22 -40 -25 -43 -6 -2 9 3 16 11 16 7 0 10 -5 7 -10 -4 -6 -1 -7 6 -3 7 5
10 10 7 13 -3 3 3 13 12 22 10 9 13 13 7 10 -29 -17 -44 -18 -38 -2 5 12 3 14
-7 8 -9 -5 -11 -4 -6 4 6 9 11 9 22 0 12 -10 13 -9 8 6 -5 13 -4 16 4 11 8 -5
10 -1 5 10 -4 10 -2 15 4 11 5 -3 10 0 10 8 0 8 -4 12 -9 9 -4 -3 -8 0 -8 6 0
7 -7 7 -22 -1 -18 -9 -20 -9 -12 0 6 7 20 14 30 15 10 2 20 9 22 16 3 9 -1 11
-12 7 -9 -4 -24 -10 -33 -13 -17 -5 -17 -5 0 6 9 6 14 16 11 22 -5 7 -1 9 9 5
9 -3 16 -3 16 1 -1 4 0 9 1 12 2 3 3 20 4 38 2 21 -2 32 -11 32 -9 0 -11 -5
-6 -12 12 -20 14 -46 3 -53 -6 -4 -7 1 -3 11 5 13 3 15 -8 9 -8 -4 -11 -4 -6
0 4 5 -1 17 -10 27 -10 11 -13 18 -8 17 6 -1 21 3 35 9 19 8 21 11 7 11 -10 1
-15 6 -12 11 4 6 11 7 17 4 7 -4 8 -2 4 4 -4 6 -13 9 -21 5 -12 -4 -14 1 -11
18 3 13 5 27 5 32 1 4 8 7 16 7 8 0 15 5 15 11 0 6 -6 9 -14 6 -8 -3 -20 0
-26 8 -9 11 -7 13 14 9 21 -3 24 -1 19 12 -5 12 -3 15 6 9 10 -6 11 -3 2 12
-7 15 -7 23 2 32 9 10 8 11 -6 5 -11 -4 -16 -13 -12 -24 3 -10 1 -21 -4 -25
-7 -4 -8 1 -4 11 5 12 3 15 -6 9 -10 -6 -11 -3 -2 13 14 27 14 35 -1 26 -7 -4
-8 -3 -4 4 4 6 13 9 21 5 11 -4 13 -1 8 13 -4 12 -3 15 5 10 7 -4 12 -3 12 3
0 5 -6 11 -12 14 -9 3 -7 10 7 21 16 13 17 15 2 10 -13 -5 -16 -2 -11 10 3 9
1 16 -4 16 -6 0 -9 -9 -7 -19 3 -14 -1 -18 -12 -14 -8 3 -11 9 -6 12 15 11 14
31 -2 37 -12 5 -13 9 -4 20 9 11 15 11 25 3 20 -17 17 -6 -6 21 -22 25 -19 39
8 35 9 -1 11 0 4 2 -15 5 -11 28 6 28 5 0 14 4 19 9 5 5 2 6 -6 1 -10 -6 -12
-2 -7 16 3 13 3 18 0 11 -3 -6 -10 -10 -15 -7 -5 4 -6 -2 -2 -11 5 -13 3 -15
-7 -9 -8 5 -11 4 -7 -2 4 -6 -1 -17 -10 -24 -15 -12 -16 -12 -8 1 17 27 15 94
-3 115 -16 19 -16 19 1 6 24 -19 21 -2 -5 28 -13 14 -16 20 -8 14 14 -13 39
-19 27 -6 -4 3 -1 13 6 21 10 13 9 15 -5 9 -10 -3 -20 -1 -24 5 -4 7 -3 8 4 4
7 -4 12 -2 12 3 0 6 -6 11 -12 11 -9 0 -9 3 -3 8 13 8 13 22 1 40 -5 8 -4 18
1 23 6 6 10 4 11 -6 1 -8 3 -22 4 -30 1 -10 5 -12 11 -6 7 7 5 16 -4 27 -13
16 -12 17 6 11 18 -7 19 -6 3 6 -10 8 -15 16 -13 19 3 3 -1 11 -10 18 -10 8
-15 9 -15 1 0 -6 6 -11 13 -11 6 0 4 -5 -6 -11 -10 -6 -21 -8 -24 -5 -4 3 -1
6 7 6 9 0 10 3 2 13 -8 10 -6 16 10 26 11 7 17 8 13 2 -3 -6 -1 -11 5 -11 7 0
10 6 7 13 -2 6 -11 11 -20 11 -18 -2 -15 29 5 53 10 12 9 14 -8 11 -10 -1 -22
-10 -26 -18 -6 -11 -7 -10 -5 5 2 11 9 19 15 17 7 -1 12 2 12 8 0 5 8 7 18 4
10 -4 13 -3 6 3 -6 4 -10 16 -8 26 1 10 -2 14 -8 11 -6 -4 -8 -1 -6 7 3 8 12
13 19 11 11 -3 12 -1 2 9 -11 10 -16 9 -28 -7 -17 -22 -20 -12 -5 17 7 11 7
19 1 19 -5 0 -11 -5 -13 -12 -3 -7 -7 -5 -11 6 -4 10 -3 15 3 11 6 -3 10 -2
10 4 0 6 8 8 18 5 14 -5 14 -4 3 4 -17 12 -24 42 -10 42 5 0 9 4 9 8 0 5 -7 9
-15 9 -8 0 -12 -3 -10 -7 2 -4 -3 -7 -11 -7 -10 0 -11 4 -4 11 19 19 10 28
-13 13 -19 -12 -24 -13 -24 -2 0 8 3 12 7 10 3 -2 12 0 20 5 8 5 19 5 25 0 8
-7 12 -5 12 5 0 8 -4 12 -8 9 -4 -2 -10 0 -13 5 -4 5 -1 11 6 14 7 2 3 2 -9 0
-24 -4 -31 11 -11 23 7 4 8 3 4 -4 -5 -8 -1 -10 9 -5 9 3 13 9 8 12 -14 10
-16 44 -2 35 8 -4 10 -3 5 5 -10 16 -29 3 -22 -16 3 -8 1 -11 -4 -8 -6 3 -10
1 -10 -4 0 -6 -5 -11 -10 -11 -6 0 -5 8 2 20 11 17 10 22 -2 30 -10 6 -11 10
-2 10 7 0 12 14 12 34 0 19 -6 37 -12 40 -7 4 -3 4 9 2 15 -3 20 0 16 10 -3 8
-9 11 -14 8 -5 -3 -17 0 -26 6 -14 8 -14 10 -3 9 36 -3 46 1 26 12 -15 9 -16
13 -5 21 11 8 11 9 -1 5 -8 -2 -14 -10 -13 -16 2 -6 -2 -11 -8 -11 -6 0 -8 9
-4 21 4 13 3 19 -2 16 -6 -4 -8 4 -5 18 2 14 -2 33 -9 43 -13 15 -12 16 3 4
13 -11 18 -11 24 0 4 7 4 10 -1 6 -8 -8 -35 15 -35 30 0 5 10 17 23 26 22 16
22 16 0 6 -32 -15 -41 -12 -18 6 19 16 19 16 -5 9 -22 -7 -23 -6 -11 9 7 9 10
16 5 16 -4 0 -3 5 4 12 7 7 12 19 12 28 0 8 -10 -4 -22 -27 -26 -50 -35 -51
-14 -2 9 21 11 41 6 49 -4 7 -6 19 -3 26 2 6 0 15 -6 19 -6 3 -11 11 -11 17 0
6 7 5 18 -3 15 -13 16 -12 3 3 -7 10 -18 15 -24 11 -6 -4 -8 0 -4 11 4 10 3
15 -3 11 -7 -4 -9 3 -6 20 5 28 -1 55 -13 55 -4 0 -8 -7 -8 -15 0 -8 4 -12 9
-9 4 3 8 0 8 -5 0 -6 -7 -11 -15 -11 -9 0 -15 6 -13 14 2 8 -6 22 -17 31 -20
16 -19 16 3 5 12 -6 22 -7 22 -2 0 5 -10 14 -22 20 -21 11 -19 12 12 7 33 -5
33 -4 10 7 -14 6 -28 10 -32 10 -5 -1 -7 1 -7 6 3 18 -2 33 -9 28 -5 -3 -9 1
-9 8 0 11 4 12 18 3 10 -6 15 -15 13 -19 -3 -4 -3 -8 0 -8 3 0 10 9 16 19 7
14 7 22 -2 27 -7 4 -8 3 -4 -4 4 -7 1 -12 -7 -12 -9 0 -14 10 -14 25 -1 13 3
23 6 21 4 -3 8 5 8 16 2 20 1 20 -12 2 -11 -15 -16 -16 -26 -7 -19 18 -22 54
-5 47 8 -3 17 0 21 6 4 7 -2 9 -18 6 -17 -3 -31 2 -44 17 -10 11 -12 17 -5 13
6 -4 12 -3 12 3 0 5 -6 12 -12 14 -10 4 -10 6 -1 6 14 1 35 -33 27 -42 -3 -3
5 -3 18 1 18 5 19 7 6 10 -19 4 -25 22 -7 22 5 0 7 5 3 11 -4 8 -9 7 -15 -2
-5 -8 -9 -9 -10 -4 -1 6 -2 15 -4 20 -1 6 -3 16 -3 23 -1 6 -7 12 -14 12 -9 0
-9 -3 0 -12 15 -15 15 -28 1 -28 -5 0 -8 4 -4 9 3 5 -5 17 -17 27 -18 13 -19
15 -4 10 19 -7 19 -8 3 61 -4 18 -15 26 -40 30 -31 5 -40 18 -12 18 12 0 21
-4 18 -9 -4 -5 -1 -6 6 -2 8 5 9 12 3 19 -5 7 -8 23 -6 37 3 21 2 22 -7 8 -11
-20 -29 -24 -29 -7 0 5 5 7 10 4 6 -3 10 -1 10 4 0 6 -4 11 -10 11 -5 0 -10 5
-10 11 0 5 6 7 13 3 9 -6 9 -5 0 7 -10 12 -10 18 -1 27 9 9 9 12 0 12 -7 0
-12 -5 -12 -11 0 -5 -6 -7 -12 -3 -10 6 -10 5 -1 -7 10 -12 8 -15 -10 -16 -17
-2 -19 0 -7 7 8 5 11 10 5 10 -5 0 -4 5 3 12 15 15 15 28 1 28 -5 0 -7 -4 -4
-10 3 -5 1 -10 -4 -10 -17 0 -13 28 6 38 15 9 14 10 -3 20 -10 5 -30 8 -44 6
-18 -3 -21 -2 -10 5 8 5 17 8 20 6 4 -2 7 2 7 9 0 7 -6 13 -14 13 -7 0 -13 -4
-13 -9 0 -4 -4 -8 -8 -8 -5 0 -9 7 -9 15 0 8 5 11 10 8 7 -4 8 1 3 12 -5 15
-4 16 8 6 10 -8 16 -9 21 -1 3 5 5 10 3 11 -29 7 -44 6 -51 -4 -5 -7 -6 -4 -2
9 3 13 0 26 -9 33 -17 14 -13 50 6 63 9 6 7 8 -7 6 -12 -2 -20 3 -20 12 0 10
-9 14 -24 12 -19 -2 -21 1 -12 11 6 8 8 17 4 20 -9 10 11 9 23 0 5 -5 3 -1 -4
7 -12 13 -15 13 -27 -3 -7 -10 -16 -14 -19 -8 -3 5 -1 11 4 13 6 2 11 12 11
23 -1 44 -4 55 -15 46 -6 -4 -20 -11 -31 -14 -17 -6 -17 -4 4 13 25 22 21 26
-10 10 -10 -6 -19 -8 -19 -6 0 3 12 12 28 21 l27 15 -32 -5 c-26 -4 -33 -2
-33 10 0 10 -5 13 -12 9 -7 -4 -10 -4 -6 1 4 4 3 15 -2 25 -6 12 -5 17 5 17 8
0 12 -4 9 -9 -3 -4 2 -18 11 -30 10 -13 15 -16 13 -8 -3 8 2 21 11 28 14 11
13 11 -6 2 -26 -12 -31 -3 -8 14 13 9 11 11 -11 13 -14 0 -31 7 -38 13 -8 10
-8 11 2 5 11 -6 12 -3 3 12 -6 11 -8 22 -6 25 3 3 -2 5 -10 5 -11 0 -12 -4 -4
-14 15 -17 2 -17 -15 0 -10 10 -10 15 -1 24 7 7 15 10 18 7 2 -3 7 2 10 11 6
14 3 14 -21 1 -20 -10 -32 -12 -43 -4 -11 8 -11 9 4 4 11 -3 17 0 17 9 0 8 6
12 14 9 8 -3 17 -1 20 4 6 10 -36 8 -54 -3 -6 -3 -9 -1 -8 7 2 7 -2 12 -9 11
-14 -3 -9 33 8 53 6 8 8 14 4 14 -4 0 -14 -8 -22 -17 -13 -17 -13 -17 -11 2 2
11 9 25 17 31 11 9 11 11 -3 11 -9 0 -16 -5 -16 -11 0 -6 -4 -4 -10 4 -5 9 -5
17 0 20 5 3 1 11 -9 17 -14 9 -18 8 -18 -3 0 -7 5 -10 11 -7 6 3 8 2 3 -2 -4
-5 0 -19 8 -32 9 -13 11 -23 5 -23 -5 0 -10 5 -10 11 0 5 -4 7 -10 4 -5 -3 -7
0 -4 8 3 8 1 18 -5 21 -5 4 -8 18 -5 31 2 14 0 25 -6 25 -6 0 -9 -4 -6 -8 2
-4 1 -14 -4 -22 -8 -12 -11 -13 -22 -2 -7 8 -8 13 -3 12 26 -5 28 2 6 19 -20
16 -21 19 -7 24 10 4 14 3 11 -2 -3 -5 -2 -12 3 -15 13 -8 11 28 -2 36 -6 4
-16 2 -22 -3 -8 -7 -15 -6 -20 2 -4 8 -3 9 4 5 7 -4 12 -1 12 8 0 8 -4 18 -10
21 -5 3 -10 11 -10 17 0 6 7 5 18 -3 15 -13 16 -12 4 3 -8 10 -17 17 -20 16
-13 -2 -42 14 -42 24 0 5 4 7 10 3 5 -3 4 5 -3 18 -7 12 -15 23 -18 22 -3 0
-14 7 -25 15 -18 14 -18 14 -5 -2 7 -10 17 -16 21 -13 4 3 10 -4 13 -15 3 -11
1 -20 -5 -20 -5 0 -6 -4 -3 -10 3 -6 -1 -7 -10 -3 -13 4 -14 8 -4 14 10 6 9
12 -5 28 -10 11 -22 18 -26 16 -5 -3 -6 4 -3 15 3 11 9 17 14 14 18 -11 49
-13 43 -3 -3 6 -8 8 -11 5 -3 -3 -14 -1 -24 4 -13 7 -22 6 -33 -6 -9 -8 -16
-11 -16 -5 0 5 7 17 16 25 12 12 12 16 2 16 -11 0 -11 2 0 9 11 7 11 9 -1 14
-8 3 -20 0 -26 -6 -6 -6 -14 -8 -18 -4 -3 4 2 14 13 23 10 8 13 13 7 9 -7 -3
-13 0 -13 7 -1 7 -7 0 -14 -17 l-14 -30 1 30 c1 17 7 34 12 38 6 5 -1 5 -15 1
-23 -6 -24 -6 -10 11 11 14 11 17 1 11 -10 -7 -12 -3 -6 15 7 23 7 23 -8 4 -9
-11 -11 -22 -6 -23 5 -2 7 -8 3 -13 -3 -5 2 -12 10 -15 9 -3 16 -11 16 -16 0
-7 -5 -6 -13 1 -8 6 -16 9 -19 6 -4 -5 -5 0 -9 38 -1 6 0 17 2 22 2 6 -1 10
-6 10 -5 0 -9 -3 -8 -7 2 -5 -2 -8 -8 -8 -5 0 -7 -5 -3 -12 4 -7 3 -8 -4 -4
-9 5 -9 13 -2 26 5 10 7 26 4 34 -7 18 -34 22 -34 5 0 -5 4 -8 9 -4 5 3 12 1
15 -4 10 -15 -10 -22 -22 -8 -16 20 -11 49 7 42 13 -5 14 -4 3 7 -11 11 -16
10 -28 -6 -7 -11 -17 -16 -21 -13 -3 4 -3 7 2 7 4 0 2 7 -5 15 -7 8 -9 15 -5
15 5 0 0 9 -10 20 -10 11 -21 17 -26 15 -4 -3 -11 0 -15 6 -4 8 -3 9 4 5 15
-9 15 -1 2 23 -5 11 -21 19 -35 19 -33 0 -42 9 -25 25 10 9 11 9 6 0 -4 -7 -2
-13 3 -13 6 0 11 5 11 10 0 6 5 10 11 10 5 0 7 -4 4 -10 -3 -5 -1 -10 4 -10
17 0 13 18 -7 29 -11 6 -24 6 -33 0 -28 -17 -34 -9 -6 10 28 18 28 18 6 24
-20 5 -21 8 -8 23 9 11 2 9 -18 -6 -18 -13 -36 -21 -40 -17 -3 4 -1 7 6 7 8 0
9 5 1 19 -12 23 -13 34 -2 27 4 -2 8 4 8 15 0 18 -2 18 -12 5 -12 -17 -39 -23
-29 -6 3 6 1 10 -4 10 -6 0 -11 -5 -11 -12 0 -6 -3 -9 -6 -5 -3 3 -2 12 2 19
14 22 13 35 -4 34 -9 0 -17 5 -17 12 0 6 -3 12 -7 12 -5 0 -11 0 -15 0 -3 0 2
-9 12 -20 10 -11 13 -20 8 -20 -6 0 -14 7 -17 16 -3 8 -9 13 -14 10 -4 -2 -14
0 -22 6 -12 8 -12 9 3 4 9 -3 17 -1 17 4 0 6 -4 10 -8 10 -5 0 -17 16 -28 36
-16 30 -23 35 -47 31 -15 -2 -30 0 -33 5 -3 5 -10 6 -15 2 -5 -3 -9 -2 -8 3 1
4 0 10 -1 13 -7 20 -7 41 2 47 7 4 9 -2 6 -15 -4 -14 -2 -20 4 -15 7 4 8 1 3
-7 -6 -9 -4 -11 5 -5 8 5 11 4 7 -1 -3 -6 4 -11 16 -11 15 -2 18 0 8 6 -7 5
-9 11 -5 13 5 3 3 3 -4 2 -7 -2 -17 8 -22 22 -8 20 -13 24 -24 15 -7 -6 -16
-7 -21 -3 -4 4 -5 -4 -1 -18 3 -14 3 -19 0 -12 -3 6 -9 10 -13 7 -5 -2 -6 11
-4 30 2 21 -1 35 -7 35 -6 0 -9 -4 -6 -8 2 -4 0 -14 -6 -22 -8 -13 -9 -13 -5
1 3 8 -3 21 -14 27 -14 9 -19 9 -19 0 0 -6 -3 -9 -6 -5 -12 12 7 28 20 18 10
-8 18 -5 32 11 11 13 12 18 4 12 -20 -14 -39 -12 -50 6 -7 12 -12 12 -22 2 -6
-6 -17 -12 -23 -12 -5 0 -4 4 3 9 7 4 15 21 17 37 2 25 1 26 -10 10 -10 -13
-14 -14 -18 -4 -4 10 -6 10 -6 1 -1 -7 -5 -13 -11 -13 -11 0 -9 28 3 47 4 6 2
15 -5 19 -7 4 -10 3 -5 -1 4 -5 -1 -17 -10 -28 -11 -12 -12 -17 -4 -12 10 5
12 4 7 -4 -12 -19 -27 -1 -20 22 6 20 5 21 -11 7 -17 -14 -18 -13 -12 3 4 12
3 16 -4 11 -7 -4 -9 1 -5 17 3 13 3 18 0 11 -3 -6 -10 -10 -15 -7 -5 4 -7 0
-6 -7 2 -7 2 -10 0 -5 -3 4 -9 4 -15 1 -6 -4 -5 2 1 15 7 11 17 21 23 21 6 0
8 3 5 6 -4 4 -13 1 -22 -6 -14 -11 -19 -7 -16 12 0 5 -2 7 -7 7 -4 -1 -14 -1
-22 0 -12 1 -13 3 -1 10 9 6 10 11 2 15 -6 4 -11 3 -11 -2 0 -16 -38 -21 -44
-6 -3 9 1 11 12 8 15 -5 15 -4 -1 6 -9 6 -22 8 -28 4 -8 -4 -9 1 -4 17 7 23 6
23 -7 5 -8 -10 -21 -16 -29 -13 -10 4 -9 6 4 6 9 1 17 5 17 10 0 11 -19 9 -40
-4 -12 -7 -13 -6 -4 6 15 18 14 51 0 41 -6 -5 -22 -9 -35 -10 -26 -1 -23 8 5
12 10 2 19 8 20 15 2 7 0 7 -3 1 -3 -8 -9 -7 -19 1 -8 6 -12 15 -9 19 2 4 -5
7 -18 6 -15 -1 -27 9 -39 34 -18 35 -18 35 -12 5 4 -22 3 -26 -5 -15 -9 12
-11 12 -17 -3 -7 -19 -25 -23 -22 -4 2 6 -2 11 -8 10 -6 -1 -11 5 -11 12 0 10
4 12 12 5 6 -5 16 -5 25 0 11 7 11 10 3 11 -28 3 -32 4 -40 12 -4 5 -8 13 -8
19 0 6 -8 12 -18 14 -9 1 -15 -1 -13 -5 3 -4 -10 -12 -27 -19 l-32 -12 24 19
c20 15 22 21 12 37 -11 18 -12 17 -6 -3 5 -18 2 -21 -14 -18 -12 2 -21 -1 -21
-6 0 -6 -4 -7 -10 -4 -5 3 -10 11 -10 17 0 6 3 9 6 5 4 -3 13 0 20 8 19 19 18
30 -2 14 -13 -10 -17 -10 -24 1 -5 8 -6 18 -3 24 4 5 1 6 -7 1 -10 -6 -12 -4
-7 8 9 24 0 21 -13 -3 -8 -16 -8 -20 2 -18 7 2 14 -8 15 -22 2 -22 1 -22 -5
-4 -4 13 -14 20 -25 18 -9 -1 -15 2 -11 7 3 5 7 18 9 30 4 18 2 19 -11 8 -13
-10 -16 -9 -21 10 l-6 22 -11 -23 c-9 -16 -9 -25 -2 -31 7 -5 5 -7 -4 -4 -8 2
-15 10 -15 18 -1 8 -6 13 -11 12 -6 -1 -26 11 -45 28 -19 16 -29 29 -24 28 22
-3 35 2 35 12 0 8 -5 7 -16 -1 -13 -11 -16 -10 -21 8 -3 12 -9 22 -14 22 -5 0
-6 -7 -3 -15 5 -11 2 -13 -10 -9 -9 3 -23 1 -31 -6 -9 -7 -18 -10 -22 -6 -3 3
-1 6 5 6 7 0 12 7 12 16 0 9 5 12 12 8 7 -4 8 -3 4 5 -4 6 -11 9 -16 6 -5 -3
-16 5 -24 17 -9 12 -16 17 -16 10 0 -6 -5 -12 -11 -12 -5 0 -7 5 -3 12 5 7 3
8 -6 3 -10 -6 -9 -11 5 -21 10 -7 22 -11 26 -8 5 3 6 -3 2 -12 -4 -12 -8 -14
-11 -6 -3 10 -7 10 -20 0 -13 -11 -14 -11 -8 0 4 7 3 19 -3 26 -6 7 -10 20 -8
27 2 8 2 11 0 6 -3 -4 -9 -5 -14 -2 -5 4 -7 0 -6 -7 2 -7 2 -10 0 -5 -3 4 -9
4 -15 1 -6 -4 -6 2 1 14 16 29 14 39 -3 16 -13 -16 -17 -17 -28 -5 -8 8 -8 11
-1 7 6 -3 14 -2 17 3 4 5 -2 8 -11 6 -10 -1 -31 4 -47 12 -15 8 -25 10 -22 4
4 -6 2 -11 -3 -11 -6 0 -11 5 -11 11 0 5 -4 8 -9 4 -5 -3 -13 0 -17 6 -4 7 -3
9 3 6 5 -3 10 1 10 10 0 12 -5 11 -19 -7 -10 -13 -21 -21 -23 -18 -3 3 5 18
17 34 l23 29 -35 -25 -35 -25 19 30 19 30 -27 -24 c-14 -14 -26 -19 -26 -12 0
7 -4 10 -8 7 -4 -2 -14 -1 -22 4 -12 7 -12 11 1 26 8 10 9 15 2 11 -6 -4 -14
-1 -16 5 -4 10 -6 10 -6 0 -1 -10 -5 -10 -23 0 -33 18 -68 20 -62 3 7 -17 -12
-29 -22 -14 -4 8 -3 9 4 5 16 -10 15 7 0 23 -9 10 -9 12 -1 7 6 -3 15 -1 19 5
4 7 3 9 -4 5 -6 -3 -13 -2 -17 4 -6 10 -40 9 -51 -2 -8 -9 -34 2 -34 14 0 6 8
4 18 -3 15 -12 16 -12 5 2 -7 9 -11 19 -8 22 3 4 2 5 -2 2 -3 -3 -15 2 -25 12
-10 9 -18 13 -18 8 0 -4 8 -14 18 -21 11 -9 13 -13 4 -14 -7 0 -11 -4 -8 -9 3
-5 -1 -12 -9 -15 -13 -5 -14 -2 -4 15 9 19 8 20 -10 14 -13 -4 -21 -2 -21 5 0
6 4 9 8 6 5 -3 9 1 9 8 0 10 -9 9 -36 -6 -20 -11 -33 -17 -29 -13 4 4 3 16 -3
27 -10 19 -38 21 -51 3 -5 -6 -8 -6 -8 2 0 6 -8 10 -18 8 -11 -2 -19 3 -19 10
0 8 5 11 11 7 19 -11 53 -9 53 4 0 12 -21 13 -33 1 -3 -3 -17 1 -30 10 -13 8
-24 11 -24 7 0 -5 -5 -2 -11 6 -9 13 -10 12 -5 -2 4 -13 1 -15 -11 -11 -12 5
-14 3 -8 -8 4 -8 5 -11 0 -7 -4 4 -15 2 -23 -5 -10 -7 -13 -8 -9 -1 8 13 -16
37 -27 27 -3 -4 -14 3 -22 16 -13 19 -18 20 -32 9 -9 -8 -13 -8 -9 -2 4 7 0
15 -9 18 -25 10 -27 7 -13 -11 13 -16 12 -17 -3 -4 -15 11 -21 11 -35 0 -16
-12 -17 -12 -6 2 7 9 10 19 6 23 -4 4 -1 4 8 1 8 -3 23 2 34 11 11 8 14 13 7
9 -7 -4 -21 -1 -30 7 -15 12 -16 11 -4 -4 12 -15 11 -17 -7 -15 -12 1 -21 8
-22 17 0 9 -4 6 -9 -7 -10 -25 -17 -27 -39 -14 -18 11 -43 3 -34 -12 3 -6 1
-7 -5 -3 -18 11 -3 32 23 32 14 0 25 -4 25 -8 0 -4 4 -8 8 -8 5 0 9 6 9 13 0
9 -10 13 -26 12 -14 -1 -32 2 -38 8 -9 6 -17 6 -25 -1 -11 -8 -73 -10 -73 -2
0 2 -32 8 -62 12 -9 1 -10 5 -2 15 13 15 33 18 24 4 -3 -5 -1 -12 4 -15 11 -7
36 22 27 31 -3 3 -6 1 -6 -7 0 -10 -3 -10 -15 0 -9 7 -18 10 -22 7 -3 -4 -11
1 -18 10 -9 13 -14 13 -20 3 -5 -8 -4 -11 2 -7 6 4 13 0 17 -8 3 -8 1 -15 -4
-15 -5 0 -10 -6 -13 -12 -2 -7 -3 -5 -2 4 3 17 -20 33 -44 29 -7 -1 -11 2 -8
6 3 5 -5 10 -18 11 -28 2 -40 -24 -17 -37 9 -6 12 -11 5 -11 -6 0 -15 5 -18
10 -4 6 -11 8 -16 4 -5 -3 -8 0 -7 8 2 8 -5 12 -17 10 -13 -1 -27 8 -38 25
-10 16 -17 21 -14 13 2 -8 -2 -20 -9 -27 -15 -15 -28 -17 -19 -3 10 16 -6 12
-29 -7 -20 -17 -20 -17 -6 1 14 18 13 18 -10 12 -16 -5 -20 -4 -12 2 10 6 8
13 -8 27 -17 16 -20 16 -26 2 -3 -10 -14 -14 -30 -11 -15 3 -22 0 -20 -8 1 -7
1 -10 -1 -5 -3 4 -10 4 -16 0 -7 -4 -6 1 2 11 8 9 20 15 28 12 7 -3 13 -1 13
5 0 7 -10 9 -25 5 -17 -4 -24 -2 -21 6 1 7 1 10 -1 6 -3 -4 -3 -9 -1 -11 4 -5
-29 -37 -38 -37 -3 0 -2 6 3 13 12 14 13 47 2 47 -4 0 -10 -6 -12 -12 -4 -10
-8 -10 -16 2 -5 8 -7 18 -4 24 3 5 1 6 -5 2 -19 -11 5 -49 26 -41 12 4 14 3 6
-5 -12 -12 -44 -3 -44 12 0 5 -5 6 -11 2 -8 -5 -4 -13 12 -26 22 -18 22 -18 2
-9 -12 6 -24 15 -27 19 -6 11 -37 9 -55 -3 -9 -5 -12 -4 -7 3 3 5 0 12 -6 15
-7 3 6 3 30 2 23 -2 42 0 42 5 0 4 -22 7 -49 5 -33 -2 -49 1 -47 9 2 6 1 8 -1
4 -7 -13 -33 -9 -33 5 0 8 -3 7 -9 -3 -13 -19 -3 -32 19 -25 13 4 22 -1 30
-17 11 -22 11 -22 -5 -3 -13 16 -17 17 -24 6 -8 -12 -11 -12 -23 0 -8 8 -20
23 -27 34 -11 18 -12 17 -7 -10 3 -16 3 -24 0 -17 -3 6 -11 9 -17 5 -6 -4 -8
0 -5 9 4 8 2 21 -4 29 -8 12 -9 12 -5 -1 2 -8 -7 -20 -21 -27 -32 -17 -34 -16
-27 6 3 11 1 22 -4 26 -7 3 -8 0 -5 -9 3 -9 1 -16 -5 -16 -6 0 -11 5 -11 12 0
6 -3 8 -6 5 -4 -4 -1 -14 7 -24 9 -11 10 -14 2 -9 -8 4 -13 2 -13 -6 0 -10 -2
-10 -9 1 -5 7 -7 21 -6 30 1 9 0 10 -2 4 -3 -7 -9 -13 -14 -13 -6 0 -8 -4 -4
-9 3 -6 -5 -15 -17 -21 -21 -10 -22 -10 -5 4 21 17 21 28 0 40 -9 5 -19 4 -26
-4 -9 -8 -8 -10 6 -5 9 4 17 3 17 -3 0 -14 -15 -23 -24 -15 -10 10 -67 13 -61
3 7 -11 -27 -5 -52 9 -11 5 -25 6 -33 1 -17 -11 -50 6 -46 23 1 6 1 8 -2 4 -2
-4 -11 -2 -20 5 -15 11 -15 11 -5 -3 7 -9 9 -20 5 -24 -4 -5 -1 -5 7 0 9 5 7
-1 -4 -19 -16 -24 -34 -39 -20 -16 4 6 1 18 -7 27 -9 12 -9 15 0 9 6 -4 12 -2
12 3 0 17 -15 13 -36 -11 -19 -21 -19 -21 0 -14 16 6 17 4 6 -9 -12 -15 -14
-15 -22 0 -5 8 -13 13 -19 10 -5 -4 -9 -1 -9 5 0 7 7 9 16 6 10 -4 13 -2 8 6
-4 7 -3 8 4 4 8 -5 10 -1 5 10 -4 11 -3 15 5 10 6 -3 13 -2 16 3 10 16 -20 6
-40 -13 -11 -12 -19 -15 -22 -7 -2 6 -8 11 -13 11 -6 0 -7 -4 -4 -10 3 -5 2
-10 -4 -10 -6 0 -8 -8 -5 -17 5 -17 5 -17 -6 0 -6 9 -15 15 -20 12 -5 -3 -11
-1 -15 4 -3 6 3 8 15 6 11 -2 20 0 20 4 0 5 -13 8 -30 7 -19 0 -26 -4 -20 -10
20 -20 9 -26 -15 -10 -14 9 -23 20 -20 24 3 5 0 12 -6 16 -7 4 -9 3 -6 -3z
m37 -67 c0 -6 -5 -3 -10 6 -11 19 -49 16 -62 -4 -9 -15 -10 -6 -2 16 3 9 10
14 14 11 5 -3 12 0 15 5 8 13 45 -16 45 -34z m274 -6 c-6 -6 -10 -3 -10 10 0
13 4 16 10 10 7 -7 7 -13 0 -20z m-394 12 c0 -5 -7 -9 -15 -9 -8 0 -12 4 -9 9
3 4 9 8 15 8 5 0 9 -4 9 -8z m695 -2 c3 -6 -1 -7 -9 -4 -18 7 -21 14 -7 14 6
0 13 -4 16 -10z m-932 -16 c-3 -15 -20 -15 -26 0 -4 9 0 13 11 12 9 -2 16 -7
15 -12z m1332 7 c3 -5 1 -12 -5 -16 -5 -3 -10 1 -10 9 0 18 6 21 15 7z m-1417
-19 c-10 -2 -18 -8 -18 -14 0 -6 -2 -9 -5 -6 -12 12 7 37 23 30 16 -6 15 -7 0
-10z m226 10 c3 -5 -1 -9 -9 -9 -8 0 -12 4 -9 9 3 4 7 8 9 8 2 0 6 -4 9 -8z
m990 0 c3 -5 -1 -9 -9 -9 -8 0 -12 4 -9 9 3 4 7 8 9 8 2 0 6 -4 9 -8z m-1377
-25 c0 -8 -6 -14 -14 -14 -9 0 -10 4 -2 14 6 7 12 13 14 13 1 0 2 -6 2 -13z
m197 -3 c3 -8 2 -12 -4 -9 -6 3 -10 10 -10 16 0 14 7 11 14 -7z m126 12 c0 -3
-4 -8 -10 -11 -5 -3 -10 -1 -10 4 0 6 5 11 10 11 6 0 10 -2 10 -4z m1220 0 c0
-3 -4 -8 -10 -11 -5 -3 -10 -1 -10 4 0 6 5 11 10 11 6 0 10 -2 10 -4z m266
-24 c1 -7 0 -8 -3 -2 -2 5 -9 8 -14 4 -5 -3 -9 0 -9 6 0 15 23 7 26 -8z m39
-1 c3 -6 -4 -15 -15 -21 -20 -11 -21 -10 -10 9 12 23 16 25 25 12z m-2053 -46
c9 -19 8 -19 -5 -2 -11 14 -16 15 -20 5 -3 -7 -4 -2 -2 12 5 35 6 37 12 20 3
-8 10 -24 15 -35z m22 20 c9 -14 14 -25 12 -25 -8 0 -36 31 -36 41 0 15 7 10
24 -16z m226 9 c0 -8 -19 -13 -24 -6 -3 5 1 9 9 9 8 0 15 -2 15 -3z m2100 -69
c0 -2 -10 -9 -22 -15 -22 -11 -22 -10 -4 4 21 17 26 19 26 11z m-2670 -21 c0
-8 -33 -34 -43 -34 -7 0 -6 4 3 10 8 5 11 10 7 10 -15 0 2 17 18 17 8 0 15 -2
15 -3z m2770 -14 c0 -5 -5 -10 -11 -10 -5 0 -7 5 -4 10 3 6 8 10 11 10 2 0 4
-4 4 -10z m140 -25 c0 -8 -4 -15 -10 -15 -5 0 -7 7 -4 15 4 8 8 15 10 15 2 0
4 -7 4 -15z m96 -40 c-1 -8 -6 -18 -11 -22 -4 -5 -5 -2 0 6 6 11 4 13 -11 8
-18 -7 -18 -7 0 8 24 18 25 18 22 0z m-3206 -9 c0 -2 -7 -7 -16 -10 -8 -3 -12
-2 -9 4 6 10 25 14 25 6z m3403 -43 c-7 -2 -9 -12 -5 -21 5 -16 5 -16 -11 0
-22 21 -21 24 6 25 12 0 17 -1 10 -4z m91 -38 c10 -8 23 -12 29 -8 6 3 7 1 3
-5 -4 -6 -14 -8 -24 -5 -14 5 -15 3 -4 -8 6 -7 12 -18 12 -23 -1 -13 -24 25
-25 38 0 5 -6 11 -14 14 -8 3 -11 0 -8 -5 3 -5 1 -15 -4 -23 -7 -11 -8 -8 -5
10 3 14 5 26 5 28 2 6 18 0 35 -13z m211 -105 c3 -5 1 -10 -4 -10 -6 0 -11 5
-11 10 0 6 2 10 4 10 3 0 8 -4 11 -10z m-4178 -15 c0 -8 -4 -12 -9 -9 -5 3 -6
10 -3 15 9 13 12 11 12 -6z m4206 2 c3 -8 -1 -14 -8 -14 -7 0 -11 6 -8 14 3 7
6 13 8 13 2 0 5 -6 8 -13z m-4298 -47 c-3 -5 -12 -10 -18 -10 -7 0 -6 4 3 10
19 12 23 12 15 0z m4349 -6 c3 -8 2 -12 -4 -9 -6 3 -10 10 -10 16 0 14 7 11
14 -7z m-4419 -14 c3 -5 1 -10 -4 -10 -6 0 -11 5 -11 10 0 6 2 10 4 10 3 0 8
-4 11 -10z m4570 -40 c-8 -9 -13 -20 -10 -23 3 -4 2 -5 -2 -2 -15 12 -9 41 8
41 16 0 17 -2 4 -16z m30 -30 c10 -11 16 -20 13 -20 -3 0 -13 9 -23 20 -10 11
-16 20 -13 20 3 0 13 -9 23 -20z m128 -33 c4 3 7 4 7 1 0 -3 -8 -12 -17 -19
-10 -7 -15 -9 -11 -5 4 5 2 16 -5 25 -10 14 -10 14 4 4 9 -7 19 -10 22 -6z
m-5066 -90 c0 -8 -12 -12 -31 -11 -41 1 -50 -5 -34 -24 10 -12 10 -14 1 -8
-12 7 -18 -5 -14 -27 1 -5 -3 -6 -9 -2 -6 3 -8 11 -4 16 3 5 0 17 -8 26 -7 9
-8 14 -2 10 7 -4 17 0 24 7 6 8 19 13 29 11 10 -2 24 1 32 6 8 5 14 9 15 9 0
0 1 -6 1 -13z m5228 4 c-3 -5 -1 -12 4 -15 5 -3 7 -15 4 -27 -5 -20 -6 -20
-18 3 -8 15 -8 27 -2 36 11 14 21 17 12 3z m-30 -31 c3 -5 1 -10 -4 -10 -6 0
-11 5 -11 10 0 6 2 10 4 10 3 0 8 -4 11 -10z m156 -66 c2 2 9 -1 15 -8 8 -9 5
-15 -13 -23 -20 -10 -23 -9 -13 2 7 8 7 15 1 19 -5 3 -11 3 -14 -1 -2 -5 -2
-3 -1 4 2 7 -1 15 -6 18 -6 4 -10 1 -10 -5 0 -6 -5 -8 -11 -4 -8 4 -7 9 2 15
8 5 20 2 30 -7 8 -8 18 -12 20 -10z m64 -54 c-3 -5 -12 -10 -18 -10 -7 0 -6 4
3 10 19 12 23 12 15 0z m146 -101 c13 -11 19 -18 12 -15 -6 4 -13 0 -16 -6 -3
-9 -8 -6 -13 7 -4 11 -12 23 -18 27 -8 5 -8 8 0 8 7 0 22 -9 35 -21z m-5996
-8 c-3 -5 -1 -12 5 -16 5 -3 10 -12 10 -18 0 -7 -4 -6 -10 3 -5 8 -10 11 -10
7 0 -5 -5 -5 -10 -2 -8 5 -7 11 1 21 13 16 23 19 14 5z m-60 -41 c-3 -5 -1
-10 4 -10 6 0 11 -8 11 -17 0 -15 -2 -14 -16 3 -12 15 -14 15 -11 2 5 -15 2
-16 -32 -9 -3 1 42 40 47 41 2 0 0 -4 -3 -10z m6090 -10 c3 -5 1 -10 -4 -10
-6 0 -11 5 -11 10 0 6 2 10 4 10 3 0 8 -4 11 -10z m-6171 -74 c-3 -9 -10 -13
-15 -10 -5 3 -3 11 4 19 15 16 19 13 11 -9z m6251 14 c3 -5 1 -10 -4 -10 -6 0
-11 5 -11 10 0 6 2 10 4 10 3 0 8 -4 11 -10z m49 -2 c-3 -4 -9 -8 -15 -8 -5 0
-9 4 -9 8 0 5 7 9 15 9 8 0 12 -4 9 -9z m30 -27 c3 -5 -1 -11 -9 -14 -9 -4
-12 -1 -8 9 6 16 10 17 17 5z m-6294 -7 c0 -8 -19 -13 -24 -6 -3 5 1 9 9 9 8
0 15 -2 15 -3z m-123 -81 c0 -15 -13 -17 -22 -3 -4 6 -11 8 -16 4 -5 -3 -7
-10 -4 -15 3 -5 -2 -6 -11 -2 -15 6 -15 7 -1 17 20 16 54 15 54 -1z m-60 -58
c0 -8 -4 -12 -9 -9 -5 3 -6 10 -3 15 9 13 12 11 12 -6z m6678 -34 c10 -20 11
-32 5 -36 -6 -4 -9 -1 -8 7 2 7 -2 12 -8 11 -8 -2 -10 6 -6 20 5 20 4 21 -11
8 -15 -12 -17 -12 -11 3 9 24 22 20 39 -13z m95 -91 c-8 -5 -19 -10 -25 -10
-5 0 -3 5 5 10 8 5 20 10 25 10 6 0 3 -5 -5 -10z m46 -68 c-4 -3 -14 2 -24 12
-16 18 -16 18 6 6 13 -6 21 -14 18 -18z m64 -33 c0 -5 -4 -9 -10 -9 -5 0 -10
7 -10 16 0 8 5 12 10 9 6 -3 10 -10 10 -16z m-7174 -21 c4 -6 3 -8 -4 -4 -6 3
-13 2 -17 -4 -3 -5 -1 -10 6 -10 19 0 5 -10 -21 -15 l-23 -4 23 24 c27 29 27
29 36 13z m7234 -58 c0 -5 -5 -10 -11 -10 -5 0 -7 5 -4 10 3 6 8 10 11 10 2 0
4 -4 4 -10z m-7330 -61 c13 -9 13 -10 0 -8 -26 3 -40 -1 -38 -8 5 -15 -30 -55
-42 -48 -8 5 -1 18 21 41 36 38 38 38 59 23z m7364 3 c3 -5 -1 -9 -9 -9 -8 0
-12 4 -9 9 3 4 7 8 9 8 2 0 6 -4 9 -8z m-7487 -109 c-4 -3 0 -14 8 -23 13 -14
13 -17 0 -17 -8 0 -12 4 -9 9 3 4 1 8 -4 8 -17 0 -21 -13 -11 -34 9 -20 9 -20
-5 -3 -14 18 -14 18 -21 -2 -3 -12 -11 -21 -17 -21 -6 0 2 16 16 35 15 19 23
35 19 35 -4 0 -1 5 7 10 17 11 26 13 17 3z m7709 -110 c-2 -9 -11 -17 -20 -19
-17 -2 -17 -2 0 17 21 23 23 23 20 2z m-7796 -4 c0 8 2 12 5 9 11 -11 -7 -37
-25 -35 -14 1 -16 4 -7 19 8 13 13 14 19 5 6 -9 8 -8 8 2z m-60 -113 c0 -3 -4
-8 -10 -11 -5 -3 -10 -1 -10 4 0 6 5 11 10 11 6 0 10 -2 10 -4z m7974 -51 c13
-19 13 -23 2 -19 -8 3 -16 14 -19 25 -7 25 -3 24 17 -6z m121 -215 c3 -5 1
-10 -4 -10 -6 0 -11 5 -11 10 0 6 2 10 4 10 3 0 8 -4 11 -10z m105 -160 c0 -5
-2 -10 -4 -10 -3 0 -8 5 -11 10 -3 6 -1 10 4 10 6 0 11 -4 11 -10z m106 -119
c-4 -5 -2 -11 4 -13 6 -2 6 -8 0 -18 -8 -13 -10 -12 -10 3 0 9 -6 17 -12 17
-9 0 -8 4 2 10 19 12 23 12 16 1z m-8732 -106 c-10 -7 -22 -11 -27 -8 -12 7 0
19 23 20 21 2 21 1 4 -12z m8783 8 c-4 -3 -2 -12 4 -19 6 -8 7 -14 0 -18 -6
-4 -7 -14 -4 -24 7 -18 5 -17 -17 11 -7 10 -9 17 -4 15 5 -2 10 2 11 7 0 6 -4
9 -10 7 -6 -2 -5 4 3 12 7 9 15 16 18 16 3 0 2 -3 -1 -7z m-8797 -37 c0 -3 -4
-8 -10 -11 -5 -3 -10 -1 -10 4 0 6 5 11 10 11 6 0 10 -2 10 -4z m-45 -65 c3
-5 2 -12 -3 -15 -5 -3 -9 1 -9 9 0 17 3 19 12 6z m8950 -101 c3 -5 1 -10 -4
-10 -6 0 -11 5 -11 10 0 6 2 10 4 10 3 0 8 -4 11 -10z m-21 -16 c3 -8 2 -12
-4 -9 -6 3 -10 10 -10 16 0 14 7 11 14 -7z m11 -43 c3 -5 2 -12 -3 -15 -5 -3
-9 1 -9 9 0 17 3 19 12 6z m32 -63 c-3 -8 -6 -5 -6 6 -1 11 2 17 5 13 3 -3 4
-12 1 -19z m-9075 -7 c-11 -10 -20 -13 -24 -7 -9 14 -3 21 21 23 18 2 19 1 3
-16z m9115 -25 c0 -8 -6 -12 -15 -9 -11 5 -11 7 0 14 7 5 13 9 14 9 0 0 1 -6
1 -14z m-7 -60 c0 -3 -4 -8 -10 -11 -5 -3 -10 -1 -10 4 0 6 5 11 10 11 6 0 10
-2 10 -4z m40 0 c0 -2 -7 -6 -15 -10 -8 -3 -15 -1 -15 4 0 6 7 10 15 10 8 0
15 -2 15 -4z m-9165 -25 c3 -5 2 -12 -3 -15 -5 -3 -9 1 -9 9 0 17 3 19 12 6z
m9171 -28 c-3 -4 -6 -1 -6 7 0 10 -3 10 -17 -1 -15 -13 -15 -12 -2 8 11 19 15
20 22 7 5 -9 6 -18 3 -21z m94 -217 c0 -1 -9 -2 -20 -3 -11 -1 -19 4 -17 10 1
7 -4 11 -11 9 -8 -1 -11 2 -7 8 4 6 15 4 31 -6 13 -9 24 -17 24 -18z m-9423
-25 c1 -11 -4 -22 -11 -24 -22 -9 -12 34 9 43 1 0 1 -9 2 -19z m9478 -161 c-3
-5 -12 -10 -18 -10 -7 0 -6 4 3 10 19 12 23 12 15 0z m10 -44 c18 -28 28 -69
14 -61 -5 4 -9 1 -9 -6 0 -7 -3 -9 -6 -6 -4 4 -1 13 6 22 11 13 7 19 -11 17
-4 -1 -5 8 -2 18 3 11 0 20 -6 20 -6 0 -11 5 -11 10 0 16 9 12 25 -14z m-9554
-40 c-6 -7 -9 -15 -6 -18 3 -2 -2 -5 -10 -5 -18 0 -20 18 -3 35 15 15 32 4 19
-12z m-11 -46 c0 -5 -4 -10 -10 -10 -5 0 -10 5 -10 10 0 6 5 10 10 10 6 0 10
-4 10 -10z m9600 6 c0 -3 -4 -8 -10 -11 -5 -3 -10 -1 -10 4 0 6 5 11 10 11 6
0 10 -2 10 -4z m-9585 -56 c2 -12 1 -20 -2 -16 -4 4 -8 16 -10 28 -4 28 6 18
12 -12z m-15 -46 c0 -8 -19 -13 -24 -6 -3 5 1 9 9 9 8 0 15 -2 15 -3z m9610
-8 c0 -2 -7 -7 -16 -10 -8 -3 -12 -2 -9 4 6 10 25 14 25 6z m15 -96 c-3 -5
-12 -10 -18 -10 -7 0 -6 4 3 10 19 12 23 12 15 0z m45 -122 c0 -6 -6 -5 -15 2
-8 7 -15 14 -15 16 0 2 7 1 15 -2 8 -4 15 -11 15 -16z m-17 -33 c-7 -21 -12
-19 -10 4 0 11 5 18 9 15 4 -3 5 -11 1 -19z m-9732 -3 c-7 -2 -18 1 -23 6 -8
8 -4 9 13 5 13 -4 18 -8 10 -11z m9796 -188 c-3 -3 -12 -4 -19 -1 -8 3 -5 6 6
6 11 1 17 -2 13 -5z m28 -113 c3 -5 1 -12 -4 -15 -5 -3 -11 1 -15 9 -6 16 9
21 19 6z m-9870 -30 c3 -5 0 -13 -6 -17 -8 -5 -9 -3 -4 6 6 9 1 10 -16 5 -19
-5 -21 -4 -9 4 19 13 27 14 35 2z m-25 -135 c0 -6 -5 -4 -10 4 -6 10 -10 11
-10 3 0 -7 -4 -13 -9 -13 -8 0 -8 8 -2 39 2 8 31 -22 31 -33z m-14 -111 c1 -8
-2 -15 -7 -15 -5 0 -9 -5 -9 -11 0 -5 5 -7 12 -3 7 5 8 3 3 -5 -13 -22 -28 4
-16 27 6 10 8 22 6 26 -3 3 -2 4 2 1 4 -3 8 -12 9 -20z m9919 -94 c3 -5 2 -12
-3 -15 -5 -3 -9 1 -9 9 0 17 3 19 12 6z m-9922 -126 c-3 -9 -8 -14 -10 -11 -3
3 -2 9 2 15 9 16 15 13 8 -4z m9950 -129 c6 -16 -1 -26 -17 -26 -6 0 -4 5 4
10 10 6 11 10 3 10 -7 0 -13 5 -13 10 0 15 17 12 23 -4z m-9966 -241 c0 -11
-4 -12 -14 -4 -7 6 -13 13 -13 15 0 2 6 4 13 4 8 0 14 -7 14 -15z m1 -151 c-4
-3 -12 5 -18 18 -12 22 -12 22 6 6 10 -10 15 -20 12 -24z m14 -36 c-9 -9 -7
-15 6 -25 15 -13 14 -13 -6 -3 -19 9 -21 14 -11 26 6 8 14 14 17 14 3 0 1 -5
-6 -12z m9942 -1 c-3 -8 -12 -14 -21 -14 -13 0 -13 2 3 14 10 7 19 13 21 13 1
0 0 -6 -3 -13z m-9946 -59 c11 -14 10 -16 -5 -14 -10 2 -17 6 -15 9 1 4 2 12
2 19 0 6 1 9 3 7 1 -2 8 -12 15 -21z m27 -88 c3 -5 1 -10 -4 -10 -6 0 -11 5
-11 10 0 6 2 10 4 10 3 0 8 -4 11 -10z m9885 -14 c0 -3 -4 -8 -10 -11 -5 -3
-10 -1 -10 4 0 6 5 11 10 11 6 0 10 -2 10 -4z m-9902 -23 c-2 -11 3 -18 14
-18 19 0 34 -11 16 -12 -7 0 -19 -2 -27 -4 -9 -3 -15 5 -16 24 -1 15 2 27 7
27 5 0 8 -8 6 -17z m53 -296 c-8 -8 -14 -7 -23 2 -11 10 -9 11 6 5 15 -6 17
-4 11 6 -6 9 -4 11 4 5 9 -5 10 -10 2 -18z m9814 -7 c3 -6 -1 -7 -9 -4 -18 7
-21 14 -7 14 6 0 13 -4 16 -10z m-11 -121 c-3 -5 0 -9 7 -9 9 0 9 -3 -1 -14
-6 -8 -18 -12 -25 -9 -12 4 -12 7 0 20 16 16 10 38 -7 27 -7 -4 -8 -2 -4 5 6
9 11 9 22 0 7 -6 11 -15 8 -20z m-18 -86 c1 -13 -3 -22 -9 -20 -14 4 -16 44
-3 44 6 0 12 -11 12 -24z m-33 -38 c-3 -9 -8 -14 -10 -11 -3 3 -2 9 2 15 9 16
15 13 8 -4z m22 -35 c-3 -5 -10 -10 -16 -10 -5 0 -9 5 -9 10 0 6 7 10 16 10 8
0 12 -4 9 -10z m-9705 -40 c0 -5 -2 -10 -4 -10 -3 0 -8 5 -11 10 -3 6 -1 10 4
10 6 0 11 -4 11 -10z m9685 -20 c-3 -5 -12 -10 -18 -10 -7 0 -6 4 3 10 19 12
23 12 15 0z m-5 -41 c0 -6 -4 -7 -10 -4 -5 3 -10 11 -10 16 0 6 5 7 10 4 6 -3
10 -11 10 -16z m-9640 -19 c0 -5 -2 -10 -4 -10 -3 0 -8 5 -11 10 -3 6 -1 10 4
10 6 0 11 -4 11 -10z m15 -79 c3 -5 2 -12 -3 -15 -5 -3 -9 1 -9 9 0 17 3 19
12 6z m-18 -43 c1 -19 7 -42 13 -48 3 -3 14 -18 23 -33 l18 -28 -26 17 c-14 9
-23 19 -20 22 2 3 0 11 -7 19 -13 17 -20 63 -9 63 4 0 8 -6 8 -12z m63 -198
c0 -5 -2 -10 -4 -10 -3 0 -8 5 -11 10 -3 6 -1 10 4 10 6 0 11 -4 11 -10z
m9451 -69 c-6 -10 -8 -20 -6 -23 3 -3 -1 -5 -9 -5 -12 0 -12 4 1 24 18 28 28
31 14 4z m-9396 -31 c3 -6 -1 -7 -9 -4 -18 7 -21 14 -7 14 6 0 13 -4 16 -10z
m-11 -26 c3 -8 11 -12 17 -8 8 4 9 3 5 -4 -5 -9 -14 -7 -32 4 -27 19 -30 24
-10 24 8 0 17 -7 20 -16z m9371 -49 c-1 -12 -5 -27 -9 -33 -9 -15 -26 -16 -26
-1 0 5 5 7 10 4 6 -3 10 1 10 9 0 9 0 19 0 24 0 4 -4 7 -9 7 -5 0 -12 2 -15 6
-3 3 5 5 18 5 18 0 23 -5 21 -21z m-9332 -76 c3 -12 10 -18 16 -14 18 11 12
-1 -11 -21 -21 -19 -21 -19 -16 3 4 13 2 26 -3 29 -12 7 -12 24 0 24 5 0 11
-9 14 -21z m50 -44 c-7 -21 -12 -19 -10 4 0 11 5 18 9 15 4 -3 5 -11 1 -19z
m9217 -30 c0 -2 -6 -5 -13 -8 -8 -3 -14 1 -14 8 0 7 6 11 14 8 7 -3 13 -6 13
-8z m-14 -37 c4 -7 4 -10 -1 -6 -4 4 -15 2 -24 -5 -14 -11 -14 -10 -2 6 16 20
18 21 27 5z m-9176 -32 c0 -2 -7 -7 -16 -10 -8 -3 -12 -2 -9 4 6 10 25 14 25
6z m9075 -114 c-3 -3 -11 0 -18 7 -9 10 -8 11 6 5 10 -3 15 -9 12 -12z m0 -60
c-3 -3 -11 0 -18 7 -9 10 -8 11 6 5 10 -3 15 -9 12 -12z m-42 -115 c4 3 7 4 7
0 0 -18 -21 -14 -30 5 -10 21 -10 21 3 6 8 -10 17 -15 20 -11z m-8877 -19 c4
-7 3 -8 -4 -4 -7 4 -12 1 -12 -8 0 -8 9 -18 21 -21 11 -4 18 -9 16 -11 -2 -3
-16 1 -30 7 -21 10 -24 15 -16 30 11 22 15 23 25 7z m8844 2 c0 -5 -5 -10 -11
-10 -5 0 -7 5 -4 10 3 6 8 10 11 10 2 0 4 -4 4 -10z m-8782 -105 c-3 -3 -9 2
-12 12 -6 14 -5 15 5 6 7 -7 10 -15 7 -18z m8677 -115 c3 -5 1 -10 -4 -10 -6
0 -11 5 -11 10 0 6 2 10 4 10 3 0 8 -4 11 -10z m-8498 -205 c0 -8 -4 -12 -9
-9 -5 3 -6 10 -3 15 9 13 12 11 12 -6z m8331 -86 c-7 -5 -17 -9 -23 -9 -5 0
-4 4 4 9 8 5 10 14 5 22 -6 11 -4 11 10 0 13 -11 14 -16 4 -22z m-18 -29 c0
-16 -38 -32 -46 -18 -4 6 -3 8 3 5 6 -4 13 0 17 8 6 17 26 21 26 5z m-8086
-178 c3 -5 -1 -9 -9 -9 -8 0 -12 4 -9 9 3 4 7 8 9 8 2 0 6 -4 9 -8z m236 -316
c0 -2 -7 -9 -15 -16 -13 -11 -14 -10 -9 4 5 14 24 23 24 12z m7398 -41 c-3 -3
-9 2 -12 12 -6 14 -5 15 5 6 7 -7 10 -15 7 -18z m32 -9 c0 -3 -4 -8 -10 -11
-5 -3 -10 -1 -10 4 0 6 5 11 10 11 6 0 10 -2 10 -4z m-94 -51 c1 -8 -2 -15 -6
-15 -5 0 -8 9 -7 20 1 21 10 18 13 -5z m-7211 -25 c3 -6 -1 -7 -9 -4 -18 7
-21 14 -7 14 6 0 13 -4 16 -10z m7164 -49 c7 -5 9 -11 5 -14 -5 -3 -15 1 -22
9 -14 16 -5 18 17 5z m-7113 -45 c0 -14 -5 -21 -9 -17 -4 4 -5 15 -1 24 9 24
12 21 10 -7z m7037 -1 c-3 -9 -8 -14 -10 -11 -3 3 -2 9 2 15 9 16 15 13 8 -4z
m-7002 -38 c-10 -9 -11 -8 -5 6 3 10 9 15 12 12 3 -3 0 -11 -7 -18z m6978 -3
c-6 -8 -17 -14 -23 -14 -6 0 -3 5 7 11 9 6 14 15 11 21 -4 7 -2 8 5 4 9 -6 9
-11 0 -22z m-6925 -30 c3 -8 2 -13 -3 -9 -5 3 -11 0 -13 -7 -3 -7 -7 -5 -11 6
-4 10 -3 15 3 11 6 -3 10 -1 10 4 0 16 7 13 14 -5z m6889 -41 c-8 -12 -18 -23
-21 -23 -3 0 -2 3 1 7 4 3 2 12 -5 20 -9 11 -7 12 7 7 11 -5 16 -4 12 3 -3 5
0 10 8 10 11 0 10 -5 -2 -24z m-6756 -69 c-3 -3 -12 -4 -19 -1 -8 3 -5 6 6 6
11 1 17 -2 13 -5z m6673 -27 c0 -4 -5 -5 -10 -2 -15 9 -41 -14 -33 -29 3 -6 2
-7 -2 -3 -11 9 -16 37 -7 36 21 -3 23 3 6 16 -17 13 -16 13 14 3 17 -7 32 -16
32 -21z m-70 -17 c0 -5 -4 -10 -10 -10 -5 0 -10 5 -10 10 0 6 5 10 10 10 6 0
10 -4 10 -10z m-6428 -119 c8 11 8 10 4 -4 -4 -11 0 -20 12 -24 9 -4 20 -12
25 -19 4 -7 14 -11 21 -8 16 6 30 -11 21 -26 -3 -6 -26 6 -51 27 -25 21 -50
37 -54 36 -5 -2 -6 5 -3 14 5 12 8 13 11 4 4 -11 6 -11 14 0z m6268 -12 c0 -5
5 -7 10 -4 18 11 11 -1 -16 -26 -21 -19 -24 -20 -18 -5 6 15 4 17 -6 11 -8 -5
-11 -4 -6 3 4 6 14 8 24 5 15 -6 15 -5 3 10 -9 11 -10 17 -2 17 6 0 11 -5 11
-11z m-6023 -173 c-1 -6 5 -11 13 -11 23 0 24 -19 1 -34 -18 -12 -21 -11 -21
2 0 8 -7 20 -15 27 -8 7 -13 16 -10 19 7 12 34 9 32 -3z m133 -80 c-7 -7 -13
-7 -20 0 -6 6 -3 10 10 10 13 0 16 -4 10 -10z m81 -59 c-6 -8 -7 -18 -3 -22 4
-5 2 -5 -5 -1 -14 8 -6 36 9 36 7 0 6 -5 -1 -13z m5352 -22 c4 -8 3 -16 -1
-19 -4 -3 -9 4 -9 15 -2 23 3 25 10 4z m-137 -73 c-17 -16 -18 -16 -5 5 7 12
15 20 18 17 3 -2 -3 -12 -13 -22z m-5000 -62 c3 0 4 7 1 15 -4 8 -2 17 2 19 7
4 8 -26 2 -43 -3 -10 -31 24 -30 38 0 11 3 9 9 -6 5 -13 12 -23 16 -23z m4823
-62 c-11 -15 -21 -28 -22 -28 -1 0 -2 11 -2 24 0 16 4 22 14 18 8 -3 12 -1 8
5 -3 5 0 10 8 10 11 0 9 -7 -6 -29z m-4659 -19 c0 9 5 8 15 -3 19 -18 19 -25
0 -22 -18 3 -55 36 -55 49 0 6 9 0 20 -13 11 -13 20 -18 20 -11z m48 -4 c-3
-3 -9 2 -12 12 -6 14 -5 15 5 6 7 -7 10 -15 7 -18z m37 -25 c3 -6 -1 -7 -9 -4
-18 7 -21 14 -7 14 6 0 13 -4 16 -10z m173 -83 c9 3 14 3 10 -1 -3 -4 -12 -8
-20 -10 -7 -1 -19 -5 -25 -9 -8 -5 -13 -4 -13 2 0 6 5 11 10 11 6 0 11 8 11
18 1 15 2 16 6 0 3 -11 10 -15 21 -11z m4138 11 c-4 -26 -17 -35 -46 -33 -17
1 -34 6 -38 10 -4 5 1 5 11 2 10 -4 17 -1 18 6 0 9 2 9 5 0 4 -8 11 -6 25 8
22 22 28 24 25 7z m-252 -113 c-4 -8 -8 -15 -10 -15 -2 0 -4 7 -4 15 0 8 4 15
10 15 5 0 7 -7 4 -15z m-223 -82 c12 -16 12 -17 -2 -6 -9 7 -20 9 -24 5 -5 -4
-5 -1 -1 6 9 16 11 15 27 -5z m-3081 -32 c0 7 3 10 6 6 3 -3 -1 -15 -9 -27
-12 -18 -16 -19 -27 -5 -7 8 -9 15 -5 15 4 0 1 8 -6 17 -12 14 -10 14 14 -1
19 -13 27 -15 27 -5z m2947 -1 c-1 -23 -23 -34 -33 -18 -4 6 -3 8 4 4 6 -3 13
3 17 14 8 26 14 26 12 0z m-100 -22 c-3 -8 -6 -5 -6 6 -1 11 2 17 5 13 3 -3 4
-12 1 -19z m-2682 -43 c1 -13 -5 -22 -12 -21 -17 3 -29 16 -14 16 7 0 9 5 5
12 -5 7 -3 8 6 3 10 -6 12 -4 6 11 -4 10 -3 15 1 10 4 -4 8 -18 8 -31z m81
-22 c-7 -7 -21 -4 -21 5 0 4 -4 14 -9 22 -6 9 -1 7 12 -4 12 -11 20 -21 18
-23z m101 2 c0 -8 -4 -12 -9 -9 -5 3 -6 10 -3 15 9 13 12 11 12 -6z m2336 -8
c-5 -8 -8 -7 -11 1 -2 7 -9 9 -14 6 -7 -4 -8 -2 -4 4 4 6 13 9 21 6 8 -4 12
-11 8 -17z m-43 7 c0 -8 -19 -13 -24 -6 -3 5 1 9 9 9 8 0 15 -2 15 -3z m-2190
-20 c0 -8 -19 -13 -24 -6 -3 5 1 9 9 9 8 0 15 -2 15 -3z m2040 0 c0 -8 -19
-13 -24 -6 -3 5 1 9 9 9 8 0 15 -2 15 -3z m-2013 -22 c9 -6 7 -11 -7 -19 -15
-10 -21 -9 -32 4 -9 12 -9 15 0 9 6 -4 12 -2 12 3 0 13 10 14 27 3z m72 -26
c-3 -3 -11 5 -18 17 -13 21 -12 21 5 5 10 -10 16 -20 13 -22z m1853 10 c7 4 8
2 4 -5 -10 -15 -26 -4 -25 17 1 15 2 15 6 -1 2 -9 9 -14 15 -11z m108 20 c0
-3 -4 -8 -10 -11 -5 -3 -10 -1 -10 4 0 6 5 11 10 11 6 0 10 -2 10 -4z m-1899
-43 c-12 -20 -14 -14 -5 12 4 9 9 14 11 11 3 -2 0 -13 -6 -23z m1629 13 c0 -2
-7 -7 -16 -10 -8 -3 -12 -2 -9 4 6 10 25 14 25 6z m-80 -20 c-7 -7 -13 -7 -20
0 -6 6 -3 10 10 10 13 0 16 -4 10 -10z m40 -1 c7 -9 8 -15 2 -15 -5 0 -12 7
-16 15 -3 8 -4 15 -2 15 2 0 9 -7 16 -15z m-381 -31 c-11 -13 -6 -18 14 -15 5
1 7 -4 5 -11 -5 -15 -28 -18 -45 -6 -6 5 -14 5 -18 -2 -7 -11 -25 -4 -25 10 0
5 7 7 15 4 11 -5 13 -2 9 10 -3 9 -1 16 6 16 6 0 9 -4 6 -9 -3 -5 2 -15 11
-22 15 -12 16 -12 10 3 -3 10 -2 20 4 23 5 4 6 11 3 17 -4 7 -2 8 5 4 9 -6 9
-11 0 -22z m-886 1 c-3 -9 -8 -14 -10 -11 -3 3 -2 9 2 15 9 16 15 13 8 -4z
m972 -24 c-6 -5 -25 10 -25 20 0 5 6 4 14 -3 8 -7 12 -15 11 -17z m65 19 c0
-7 -46 -7 -54 0 -2 3 9 6 25 6 16 1 29 -2 29 -6z m-309 -14 c-12 -14 -35 -16
-47 -3 -4 3 3 5 14 2 12 -2 24 0 27 6 4 5 9 9 12 9 3 0 0 -6 -6 -14z"/>
<path d="M1374 8418 l-19 -23 23 19 c21 18 27 26 19 26 -2 0 -12 -10 -23 -22z"/>
<path d="M2045 1190 c3 -5 8 -10 11 -10 2 0 4 5 4 10 0 6 -5 10 -11 10 -5 0
-7 -4 -4 -10z"/>
<path d="M2217 1060 c19 -20 25 -22 35 -11 11 11 10 13 0 6 -8 -4 -23 1 -35
11 -22 18 -22 18 0 -6z"/>
<path d="M7190 579 c0 -5 5 -7 10 -4 6 3 10 8 10 11 0 2 -4 4 -10 4 -5 0 -10
-5 -10 -11z"/>
<path d="M5196 10141 c-3 -5 1 -14 9 -21 10 -9 15 -9 15 -1 0 6 -5 11 -11 11
-5 0 -7 5 -4 10 3 6 4 10 1 10 -3 0 -7 -4 -10 -9z"/>
<path d="M5290 10140 c0 -5 5 -10 11 -10 5 0 7 5 4 10 -3 6 -8 10 -11 10 -2 0
-4 -4 -4 -10z"/>
<path d="M5086 10131 c-4 -5 -2 -12 3 -15 5 -4 12 -2 15 3 4 5 2 12 -3 15 -5
4 -12 2 -15 -3z"/>
<path d="M5140 10131 c0 -6 4 -13 10 -16 6 -3 7 1 4 9 -7 18 -14 21 -14 7z"/>
<path d="M5167 10120 c3 -11 9 -17 15 -14 5 3 4 12 -3 20 -16 19 -18 18 -12
-6z"/>
<path d="M5235 10129 c-4 -6 -5 -12 -2 -15 2 -3 7 2 10 11 7 17 1 20 -8 4z"/>
<path d="M5386 10114 c-5 -14 -4 -15 9 -4 17 14 19 20 6 20 -5 0 -12 -7 -15
-16z"/>
<path d="M4637 10113 c-4 -3 -7 -11 -7 -17 0 -6 5 -5 12 2 6 6 9 14 7 17 -3 3
-9 2 -12 -2z"/>
<path d="M4495 10100 c3 -5 8 -10 11 -10 2 0 4 5 4 10 0 6 -5 10 -11 10 -5 0
-7 -4 -4 -10z"/>
<path d="M5790 10099 c0 -5 5 -7 10 -4 6 3 10 8 10 11 0 2 -4 4 -10 4 -5 0
-10 -5 -10 -11z"/>
<path d="M4350 10080 c0 -5 5 -10 10 -10 6 0 10 5 10 10 0 6 -4 10 -10 10 -5
0 -10 -4 -10 -10z"/>
<path d="M5850 10078 c0 -19 27 -31 36 -17 3 6 1 16 -5 22 -9 9 -11 7 -6 -8 7
-20 6 -20 -9 -1 -13 16 -16 17 -16 4z"/>
<path d="M5968 10047 c-10 -6 -9 -8 3 -4 9 3 21 1 26 -4 6 -6 10 -5 10 4 0 16
-20 18 -39 4z"/>
<path d="M4133 10035 c-7 -8 -9 -16 -4 -19 5 -3 12 1 15 10 8 22 4 25 -11 9z"/>
<path d="M6210 10010 c-6 -11 -9 -20 -8 -21 20 -7 60 -3 69 7 7 9 6 12 -5 10
-9 -1 -18 -5 -22 -9 -11 -11 -24 2 -17 18 8 22 -5 18 -17 -5z"/>
<path d="M3975 10000 c3 -5 8 -10 11 -10 2 0 4 5 4 10 0 6 -5 10 -11 10 -5 0
-7 -4 -4 -10z"/>
<path d="M3731 9955 c9 -11 14 -27 12 -35 -3 -11 -2 -12 4 -3 5 7 19 11 31 8
13 -2 20 0 17 6 -4 5 -11 7 -16 4 -5 -4 -9 -1 -9 6 0 7 -3 9 -7 6 -3 -4 -16 1
-27 10 -21 18 -21 18 -5 -2z"/>
<path d="M6470 9943 c8 -3 25 -15 38 -26 12 -11 22 -17 22 -12 0 4 8 1 19 -9
17 -15 19 -15 32 0 12 15 11 16 -9 9 -22 -6 -23 -5 -11 16 12 23 12 23 -13 7
-25 -16 -38 -15 -38 4 0 5 6 6 13 2 6 -4 9 -4 5 1 -5 5 -23 9 -40 11 -18 1
-26 0 -18 -3z"/>
<path d="M3640 9916 c7 -7 13 -7 20 0 6 6 3 10 -10 10 -13 0 -16 -4 -10 -10z"/>
<path d="M3472 9864 c-7 -8 -8 -14 -3 -14 10 0 25 19 20 25 -2 1 -10 -3 -17
-11z"/>
<path d="M6720 9876 c0 -2 7 -7 16 -10 8 -3 12 -2 9 4 -6 10 -25 14 -25 6z"/>
<path d="M6776 9858 c3 -5 10 -6 15 -3 13 9 11 12 -6 12 -8 0 -12 -4 -9 -9z"/>
<path d="M6750 9839 c0 -5 5 -7 10 -4 6 3 10 8 10 11 0 2 -4 4 -10 4 -5 0 -10
-5 -10 -11z"/>
<path d="M3316 9801 c-3 -5 2 -15 12 -22 15 -12 16 -12 5 2 -7 9 -10 19 -6 22
3 4 4 7 0 7 -3 0 -8 -4 -11 -9z"/>
<path d="M3257 9783 c-4 -3 -7 -11 -7 -17 0 -6 5 -5 12 2 6 6 9 14 7 17 -3 3
-9 2 -12 -2z"/>
<path d="M7010 9781 c0 -6 4 -13 10 -16 6 -3 7 1 4 9 -7 18 -14 21 -14 7z"/>
<path d="M7070 9722 c0 -5 7 -9 15 -9 8 0 15 4 15 9 0 4 -7 8 -15 8 -8 0 -15
-4 -15 -8z"/>
<path d="M3079 9718 c-5 -9 -5 -48 -1 -43 6 6 11 45 5 45 -2 0 -4 -1 -4 -2z"/>
<path d="M2997 9676 c-4 -10 -1 -13 8 -9 8 3 12 9 9 14 -7 12 -11 11 -17 -5z"/>
<path d="M2941 9626 c-10 -11 -9 -14 1 -12 14 2 23 15 15 22 -2 2 -10 -2 -16
-10z"/>
<path d="M2797 9584 c-3 -3 -3 -13 1 -22 5 -15 4 -16 -14 -2 -17 14 -18 13 -7
-1 7 -9 9 -20 5 -24 -4 -5 0 -4 8 1 8 5 24 9 35 9 12 0 20 7 20 18 0 9 -4 17
-10 17 -5 0 -10 -4 -10 -9 0 -5 -3 -13 -7 -17 -7 -7 -12 9 -9 29 1 9 -4 9 -12
1z"/>
<path d="M7505 9506 c11 -7 23 -13 26 -12 3 0 12 -4 20 -11 12 -10 15 -8 16
10 2 17 0 19 -7 7 -8 -12 -10 -12 -10 -1 0 7 -6 11 -15 8 -8 -4 -17 -2 -20 3
-4 6 -11 10 -18 10 -6 0 -3 -6 8 -14z"/>
<path d="M2486 9398 c3 -4 9 -8 15 -8 5 0 9 4 9 8 0 5 -7 9 -15 9 -8 0 -12 -4
-9 -9z"/>
<path d="M2440 9376 c7 -7 13 -7 20 0 6 6 3 10 -10 10 -13 0 -16 -4 -10 -10z"/>
<path d="M2366 9318 c3 -4 9 -8 15 -8 5 0 9 4 9 8 0 5 -7 9 -15 9 -8 0 -12 -4
-9 -9z"/>
<path d="M7997 9243 c-10 -9 -9 -23 1 -23 5 0 9 7 9 15 0 17 -1 18 -10 8z"/>
<path d="M2202 9197 c-9 -10 -6 -13 13 -13 19 0 22 3 13 13 -6 7 -12 13 -13
13 -1 0 -7 -6 -13 -13z"/>
<path d="M8047 9199 c7 -7 15 -10 18 -7 3 3 -2 9 -12 12 -14 6 -15 5 -6 -5z"/>
<path d="M1975 9040 c-3 -5 -1 -10 4 -10 6 0 11 5 11 10 0 6 -2 10 -4 10 -3 0
-8 -4 -11 -10z"/>
<path d="M1895 8980 c-3 -5 -1 -10 4 -10 6 0 11 5 11 10 0 6 -2 10 -4 10 -3 0
-8 -4 -11 -10z"/>
<path d="M8393 8933 c4 -3 -1 -12 -11 -20 -15 -13 -15 -13 6 -3 19 9 23 30 5
30 -4 0 -3 -3 0 -7z"/>
<path d="M1771 8851 c-10 -6 -9 -10 3 -14 8 -3 18 -2 21 3 8 13 -9 20 -24 11z"/>
<path d="M1655 8780 c3 -5 8 -10 11 -10 2 0 4 5 4 10 0 6 -5 10 -11 10 -5 0
-7 -4 -4 -10z"/>
<path d="M8548 8773 c7 -3 16 -2 19 1 4 3 -2 6 -13 5 -11 0 -14 -3 -6 -6z"/>
<path d="M1559 8666 c-1 -3 -2 -11 -3 -16 0 -6 -8 -15 -16 -20 -13 -8 -13 -11
-1 -22 11 -10 12 -10 7 0 -4 7 -1 15 8 18 18 7 28 31 16 39 -6 4 -11 4 -11 1z"/>
<path d="M8670 8639 c0 -5 5 -7 10 -4 6 3 10 8 10 11 0 2 -4 4 -10 4 -5 0 -10
-5 -10 -11z"/>
<path d="M8787 8533 c3 -7 8 -13 12 -13 4 0 8 6 8 13 0 8 -6 14 -13 14 -7 0
-10 -6 -7 -14z"/>
<path d="M8806 8501 c-3 -4 3 -16 14 -26 11 -10 17 -21 15 -26 -3 -4 -1 -10 5
-14 6 -4 9 4 8 19 -1 13 -5 23 -8 21 -3 -1 -10 3 -17 10 -10 11 -10 15 0 18 9
4 9 6 0 6 -6 1 -14 -3 -17 -8z"/>
<path d="M1310 8386 c0 -2 7 -7 16 -10 8 -3 12 -2 9 4 -6 10 -25 14 -25 6z"/>
<path d="M8975 8360 c-3 -5 -1 -10 4 -10 6 0 11 5 11 10 0 6 -2 10 -4 10 -3 0
-8 -4 -11 -10z"/>
<path d="M1227 8319 c7 -7 15 -10 18 -7 3 3 -2 9 -12 12 -14 6 -15 5 -6 -5z"/>
<path d="M1150 8200 c-13 -8 -12 -10 3 -10 9 0 17 5 17 10 0 12 -1 12 -20 0z"/>
<path d="M1068 8081 c0 -3 -1 -13 -2 -21 -1 -8 -7 -15 -14 -15 -6 0 -12 -4
-13 -10 0 -5 -5 -15 -10 -22 -7 -7 -6 -14 2 -19 11 -6 33 19 34 39 0 4 7 12
15 17 10 7 11 10 3 10 -7 0 -13 5 -13 11 0 5 4 8 9 4 5 -3 12 -2 15 3 3 5 -1
9 -9 9 -8 0 -16 -3 -17 -6z m-14 -50 c3 -5 -2 -15 -12 -22 -15 -12 -16 -12 -5
2 7 9 10 19 6 22 -3 4 -4 7 0 7 3 0 8 -4 11 -9z"/>
<path d="M9247 7979 c7 -7 15 -10 18 -7 3 3 -2 9 -12 12 -14 6 -15 5 -6 -5z"/>
<path d="M950 7946 c0 -2 7 -7 16 -10 8 -3 12 -2 9 4 -6 10 -25 14 -25 6z"/>
<path d="M936 7919 c3 -5 12 -9 20 -9 9 0 12 -5 8 -12 -4 -7 -3 -8 5 -4 15 10
7 22 -19 29 -11 3 -18 1 -14 -4z"/>
<path d="M9297 7864 c-4 -7 0 -17 7 -24 12 -9 17 -7 26 12 10 21 10 22 -4 5
-14 -18 -14 -18 -18 0 -2 12 -6 14 -11 7z"/>
<path d="M875 7760 c-3 -5 -11 -8 -18 -6 -7 1 -9 1 -4 -1 4 -3 4 -10 0 -16 -3
-7 3 -3 15 7 12 11 22 21 22 23 0 6 -9 3 -15 -7z"/>
<path d="M9450 7660 c-9 -6 -10 -10 -3 -10 6 0 15 5 18 10 8 12 4 12 -15 0z"/>
<path d="M696 7503 c-6 -14 -5 -15 5 -6 7 7 10 15 7 18 -3 3 -9 -2 -12 -12z"/>
<path d="M9561 7431 c-14 -25 22 -62 42 -42 9 10 8 11 -7 5 -14 -5 -17 -4 -12
5 4 6 4 11 -1 10 -19 -3 -23 2 -13 21 6 11 8 20 6 20 -3 0 -10 -8 -15 -19z"/>
<path d="M640 7390 c-6 -11 -8 -20 -6 -20 3 0 10 9 16 20 6 11 8 20 6 20 -3 0
-10 -9 -16 -20z"/>
<path d="M9630 7320 c0 -5 5 -10 11 -10 5 0 7 5 4 10 -3 6 -8 10 -11 10 -2 0
-4 -4 -4 -10z"/>
<path d="M536 7183 c-6 -14 -5 -15 5 -6 7 7 10 15 7 18 -3 3 -9 -2 -12 -12z"/>
<path d="M513 7107 c-1 -40 -3 -48 -12 -43 -5 4 -8 -2 -7 -11 2 -10 -3 -20
-10 -23 -10 -4 -8 -9 7 -18 12 -8 18 -9 14 -3 -3 6 -3 17 2 24 14 22 23 86 13
92 -4 2 -7 -6 -7 -18z"/>
<path d="M9753 7055 c0 -8 4 -12 9 -9 5 3 6 10 3 15 -9 13 -12 11 -12 -6z"/>
<path d="M9775 7019 c-4 -6 -5 -12 -2 -15 2 -3 7 2 10 11 7 17 1 20 -8 4z"/>
<path d="M468 6978 c11 -14 10 -18 -4 -26 -13 -7 -14 -13 -6 -28 6 -10 12 -13
12 -6 0 6 -1 14 -2 15 -2 2 3 11 10 19 10 13 9 18 -5 29 -16 13 -17 12 -5 -3z"/>
<path d="M9786 6978 c3 -5 10 -6 15 -3 13 9 11 12 -6 12 -8 0 -12 -4 -9 -9z"/>
<path d="M9805 6851 c-6 -11 9 -23 19 -14 9 9 7 23 -3 23 -6 0 -12 -4 -16 -9z"/>
<path d="M316 6647 c3 -10 9 -15 12 -12 3 3 0 11 -7 18 -10 9 -11 8 -5 -6z"/>
<path d="M256 6478 c3 -5 10 -6 15 -3 13 9 11 12 -6 12 -8 0 -12 -4 -9 -9z"/>
<path d="M257 6369 c4 -13 8 -18 11 -10 2 7 -1 18 -6 23 -8 8 -9 4 -5 -13z"/>
<path d="M9960 6366 c0 -2 7 -7 16 -10 8 -3 12 -2 9 4 -6 10 -25 14 -25 6z"/>
<path d="M9983 6287 c-1 -11 -1 -18 0 -16 2 2 8 11 15 20 9 12 9 16 -1 16 -7
0 -14 -9 -14 -20z"/>
<path d="M196 6202 c-3 -5 1 -9 9 -9 8 0 12 4 9 9 -3 4 -7 8 -9 8 -2 0 -6 -4
-9 -8z"/>
<path d="M10026 6124 c-19 -19 -21 -31 -3 -15 8 6 16 9 19 6 2 -3 5 2 5 10 0
19 -2 19 -21 -1z"/>
<path d="M10116 5833 c-6 -14 -5 -15 5 -6 7 7 10 15 7 18 -3 3 -9 -2 -12 -12z"/>
<path d="M150 5750 c0 -13 18 -22 24 -11 3 5 -1 11 -9 15 -8 3 -15 1 -15 -4z"/>
<path d="M10075 5740 c-3 -5 -1 -10 4 -10 6 0 11 5 11 10 0 6 -2 10 -4 10 -3
0 -8 -4 -11 -10z"/>
<path d="M123 5614 c9 -3 15 -10 12 -15 -4 -5 -1 -9 5 -9 19 0 5 25 -16 27
-16 2 -16 1 -1 -3z"/>
<path d="M10101 5581 c-8 -5 -9 -11 -3 -15 5 -3 12 1 16 9 6 17 6 18 -13 6z"/>
<path d="M10109 5523 c-6 -35 -3 -60 8 -60 8 0 9 5 2 19 -11 21 -3 42 13 32 7
-4 8 -2 4 4 -8 13 -25 16 -27 5z"/>
<path d="M122 5486 c7 -8 15 -12 17 -11 5 6 -10 25 -20 25 -5 0 -4 -6 3 -14z"/>
<path d="M10107 5436 c-4 -10 -1 -13 9 -9 7 3 14 9 14 14 0 14 -17 10 -23 -5z"/>
<path d="M110 5400 c0 -6 4 -9 9 -6 5 4 12 1 14 -4 3 -6 4 -5 3 2 -3 15 -26
23 -26 8z"/>
<path d="M10130 5315 c0 -8 2 -15 4 -15 2 0 6 7 10 15 3 8 1 15 -4 15 -6 0
-10 -7 -10 -15z"/>
<path d="M93 5298 c-4 -7 -1 -8 7 -3 10 6 12 4 7 -8 -3 -10 -2 -17 3 -17 6 0
10 7 10 16 0 9 5 12 13 8 6 -4 8 -3 4 1 -12 13 -36 15 -44 3z"/>
<path d="M10100 5281 c0 -10 19 -25 25 -20 1 2 -3 10 -11 17 -8 7 -14 8 -14 3z"/>
<path d="M107 5225 c3 -8 9 -12 14 -9 12 7 11 11 -5 17 -10 4 -13 1 -9 -8z"/>
<path d="M104 5172 c-10 -15 -8 -18 7 -19 12 -1 17 5 16 18 -2 24 -9 24 -23 1z"/>
<path d="M110 5089 c0 -5 5 -7 10 -4 6 3 10 8 10 11 0 2 -4 4 -10 4 -5 0 -10
-5 -10 -11z"/>
<path d="M10109 5018 c-7 -24 -4 -34 11 -34 11 0 15 6 12 18 -3 15 -20 25 -23
16z"/>
<path d="M106 4902 c6 -4 10 -14 9 -23 -2 -9 4 -16 11 -16 15 0 17 7 8 31 -3
9 -14 16 -23 16 -10 0 -12 -3 -5 -8z"/>
<path d="M90 4699 c0 -5 5 -7 10 -4 6 3 10 8 10 11 0 2 -4 4 -10 4 -5 0 -10
-5 -10 -11z"/>
<path d="M128 4653 c6 -2 10 -9 6 -14 -3 -5 -1 -9 5 -9 17 0 21 18 5 24 -9 3
-19 6 -22 5 -4 0 -1 -3 6 -6z"/>
<path d="M107 4599 c7 -7 15 -10 18 -7 3 3 -2 9 -12 12 -14 6 -15 5 -6 -5z"/>
<path d="M10100 4559 c-22 -18 -22 -19 -3 -10 12 6 25 16 28 21 9 15 3 12 -25
-11z"/>
<path d="M163 4453 c-15 -5 -17 -23 -4 -23 5 0 11 7 15 15 3 8 4 15 3 14 -1 0
-8 -3 -14 -6z"/>
<path d="M159 4387 c6 -6 11 -19 11 -28 0 -9 7 -22 16 -29 12 -11 15 -11 12 1
-2 8 -7 17 -12 21 -6 4 -4 13 3 22 8 9 10 16 5 17 -5 0 -17 2 -28 4 -14 3 -16
1 -7 -8z"/>
<path d="M190 4246 c0 -8 4 -17 8 -20 4 -2 8 4 8 15 0 10 -4 19 -8 19 -4 0 -8
-6 -8 -14z"/>
<path d="M174 4211 c0 -11 5 -17 10 -14 5 4 7 -1 3 -10 -4 -10 -2 -14 7 -11 7
3 13 11 13 19 0 8 -3 13 -5 10 -3 -3 -10 2 -16 11 -10 13 -12 13 -12 -5z"/>
<path d="M235 3950 c-3 -5 -1 -10 4 -10 6 0 11 5 11 10 0 6 -2 10 -4 10 -3 0
-8 -4 -11 -10z"/>
<path d="M260 3900 c-9 -6 -10 -10 -3 -10 6 0 15 5 18 10 8 12 4 12 -15 0z"/>
<path d="M259 3857 c7 -9 11 -23 8 -31 -4 -9 0 -13 11 -12 18 3 24 41 7 41 -5
0 -17 4 -25 10 -13 8 -13 7 -1 -8z m28 -29 c-3 -8 -6 -5 -6 6 -1 11 2 17 5 13
3 -3 4 -12 1 -19z"/>
<path d="M9953 3863 c4 -3 2 -12 -3 -18 -7 -9 -6 -16 5 -25 10 -9 15 -9 15 -1
0 6 -5 11 -12 11 -9 0 -9 3 0 12 15 15 15 28 0 28 -6 0 -8 -3 -5 -7z"/>
<path d="M281 3791 c-9 -6 -10 -11 -2 -15 6 -4 11 -2 11 4 0 6 5 8 12 4 7 -4
8 -3 4 4 -8 14 -7 14 -25 3z"/>
<path d="M301 3684 c0 -11 3 -14 6 -6 3 7 2 16 -1 19 -3 4 -6 -2 -5 -13z"/>
<path d="M9890 3657 c0 -2 6 -10 14 -16 11 -9 16 -9 22 1 4 7 4 10 -1 6 -4 -4
-14 -3 -22 3 -7 6 -13 9 -13 6z"/>
<path d="M335 3639 c-4 -6 -5 -12 -2 -15 2 -3 7 2 10 11 7 17 1 20 -8 4z"/>
<path d="M319 3593 c-13 -16 -12 -17 4 -4 9 7 17 15 17 17 0 8 -8 3 -21 -13z"/>
<path d="M346 3592 c-3 -5 1 -9 9 -9 8 0 12 4 9 9 -3 4 -7 8 -9 8 -2 0 -6 -4
-9 -8z"/>
<path d="M9856 3433 c-6 -14 -5 -15 5 -6 7 7 10 15 7 18 -3 3 -9 -2 -12 -12z"/>
<path d="M9757 3283 c-3 -5 3 -14 13 -21 14 -9 21 -9 26 0 4 6 3 8 -4 4 -6 -3
-15 1 -20 10 -5 9 -12 12 -15 7z"/>
<path d="M465 3220 c-4 -6 -3 -10 2 -9 20 3 34 -2 28 -11 -3 -5 0 -10 7 -10 9
0 9 -3 -2 -10 -8 -5 -10 -10 -4 -10 6 0 17 6 23 14 10 12 7 18 -18 30 -19 10
-32 12 -36 6z"/>
<path d="M9697 3143 c-20 -26 -5 -42 18 -19 11 11 12 16 2 19 -7 3 -5 6 5 6
23 1 31 17 9 17 -10 0 -25 -10 -34 -23z"/>
<path d="M550 3080 c0 -5 5 -10 11 -10 5 0 7 5 4 10 -3 6 -8 10 -11 10 -2 0
-4 -4 -4 -10z"/>
<path d="M536 3057 c3 -10 9 -15 12 -12 3 3 0 11 -7 18 -10 9 -11 8 -5 -6z"/>
<path d="M581 3021 c-9 -6 -10 -10 -2 -12 7 -3 13 -14 14 -26 0 -12 5 -19 9
-17 4 3 8 0 8 -7 0 -7 2 -10 5 -7 3 3 -1 18 -9 33 -8 16 -13 32 -10 37 7 10 3
10 -15 -1z"/>
<path d="M9665 3000 c-3 -6 1 -7 9 -4 18 7 21 14 7 14 -6 0 -13 -4 -16 -10z"/>
<path d="M9655 2951 c-3 -5 -2 -12 3 -15 5 -3 9 1 9 9 0 17 -3 19 -12 6z"/>
<path d="M594 2932 c0 -10 6 -19 13 -19 8 0 9 6 2 19 -5 10 -11 18 -12 18 -2
0 -3 -8 -3 -18z"/>
<path d="M9553 2829 c-13 -13 -6 -39 9 -39 7 0 6 5 -1 13 -6 8 -8 17 -4 20 3
4 12 -1 20 -11 13 -15 13 -15 3 6 -12 26 -12 26 -27 11z"/>
<path d="M635 2820 c3 -5 8 -10 11 -10 2 0 4 5 4 10 0 6 -5 10 -11 10 -5 0 -7
-4 -4 -10z"/>
<path d="M9534 2761 c0 -11 4 -17 8 -15 4 3 8 12 8 20 0 8 -4 14 -8 14 -4 0
-8 -9 -8 -19z"/>
<path d="M9499 2737 c-8 -22 -4 -35 9 -33 22 4 26 22 7 29 -8 4 -15 5 -16 4z"/>
<path d="M9450 2601 c0 -4 -10 -8 -22 -7 -11 0 -23 -5 -26 -13 -3 -8 0 -11 6
-7 6 3 16 -2 22 -11 9 -15 10 -15 4 6 -4 14 -2 21 4 17 5 -3 15 1 22 9 9 10 9
15 1 15 -6 0 -11 -4 -11 -9z"/>
<path d="M862 2489 c10 -5 15 -16 12 -24 -4 -8 -1 -15 4 -15 6 0 14 -9 17 -20
3 -11 11 -20 17 -20 6 0 6 6 -2 15 -7 9 -10 18 -6 22 8 8 -33 53 -48 53 -6 0
-3 -5 6 -11z"/>
<path d="M9376 2462 c-3 -5 1 -9 9 -9 8 0 12 4 9 9 -3 4 -7 8 -9 8 -2 0 -6 -4
-9 -8z"/>
<path d="M9350 2436 c0 -2 8 -10 18 -17 15 -13 16 -12 3 4 -13 16 -21 21 -21
13z"/>
<path d="M9296 2391 c-7 -11 22 -36 31 -27 3 3 1 6 -6 6 -7 0 -10 4 -6 9 3 5
1 12 -4 15 -5 4 -12 2 -15 -3z"/>
<path d="M917 2370 c10 -11 19 -20 21 -20 1 0 -2 9 -8 20 -6 11 -15 20 -20 20
-6 0 -2 -9 7 -20z"/>
<path d="M1010 2220 c0 -5 5 -10 11 -10 5 0 7 5 4 10 -3 6 -8 10 -11 10 -2 0
-4 -4 -4 -10z"/>
<path d="M1045 2220 c-3 -5 -1 -11 4 -15 6 -3 7 -13 4 -23 -4 -13 -2 -13 10 3
9 11 17 23 17 26 0 11 -29 19 -35 9z"/>
<path d="M9140 2126 c0 -2 7 -7 16 -10 8 -3 12 -2 9 4 -6 10 -25 14 -25 6z"/>
<path d="M1105 2105 c-20 -16 -20 -16 2 -6 17 9 23 7 29 -7 4 -9 8 -20 8 -24
1 -5 5 -8 10 -8 13 -1 16 24 5 41 -7 12 -9 12 -9 0 0 -11 -3 -11 -13 2 -11 16
-14 16 -32 2z"/>
<path d="M9081 2088 c-9 -23 -6 -36 4 -26 8 7 15 48 9 48 -3 0 -8 -10 -13 -22z"/>
<path d="M9119 2073 c-12 -16 -12 -17 2 -6 9 7 20 9 24 5 5 -4 5 -1 1 6 -9 16
-11 15 -27 -5z"/>
<path d="M1192 2036 c4 -5 3 -15 -4 -23 -6 -7 -8 -16 -4 -20 3 -3 6 -1 6 6 0
7 4 10 9 6 18 -10 21 13 3 26 -9 7 -14 9 -10 5z"/>
<path d="M8910 1876 c0 -2 7 -7 16 -10 8 -3 12 -2 9 4 -6 10 -25 14 -25 6z"/>
<path d="M8710 1611 c0 -7 -4 -10 -9 -7 -11 7 -9 -21 2 -29 4 -3 5 -2 2 2 -3
3 0 12 7 20 6 7 8 16 4 20 -3 3 -6 1 -6 -6z"/>
<path d="M8635 1574 c-11 -26 -15 -47 -7 -39 4 4 7 12 7 18 0 7 5 12 12 12 6
0 15 4 20 9 4 5 3 6 -4 3 -6 -4 -13 -2 -15 5 -3 7 -8 4 -13 -8z"/>
<path d="M8596 1487 c3 -10 9 -15 12 -12 3 3 0 11 -7 18 -10 9 -11 8 -5 -6z"/>
<path d="M1670 1479 c0 -5 5 -7 10 -4 6 3 10 8 10 11 0 2 -4 4 -10 4 -5 0 -10
-5 -10 -11z"/>
<path d="M1748 1403 c6 -2 10 -9 7 -14 -4 -5 1 -6 10 -2 13 5 14 7 3 14 -7 5
-17 8 -23 8 -5 0 -4 -3 3 -6z"/>
<path d="M1776 1363 c-6 -14 -5 -15 5 -6 7 7 10 15 7 18 -3 3 -9 -2 -12 -12z"/>
<path d="M1802 1376 c4 -5 3 -15 -3 -22 -7 -8 -6 -14 2 -20 7 -4 9 -3 5 4 -3
6 -2 13 4 17 6 3 13 -1 16 -9 3 -9 10 -13 15 -10 5 3 9 -4 9 -15 0 -25 12 -33
30 -19 12 8 11 9 -4 4 -15 -5 -17 -2 -13 14 3 13 -1 21 -14 25 -11 4 -16 11
-13 18 4 7 4 9 -1 5 -4 -4 -15 -2 -24 4 -9 7 -13 8 -9 4z"/>
<path d="M8365 1334 c-14 -11 -14 -12 0 -18 9 -3 25 2 35 12 19 17 19 18 0 18
-10 0 -26 -6 -35 -12z"/>
<path d="M1908 1272 c-5 -19 -4 -20 13 -11 10 5 19 15 19 22 0 8 -3 8 -9 -2
-7 -11 -9 -11 -13 0 -3 8 -7 5 -10 -9z"/>
<path d="M2005 1160 c-3 -6 1 -7 9 -4 18 7 21 14 7 14 -6 0 -13 -4 -16 -10z"/>
<path d="M7935 1000 c3 -5 -7 -16 -22 -24 -33 -18 -25 -21 12 -4 25 11 35 38
14 38 -5 0 -8 -4 -4 -10z"/>
<path d="M7747 883 c-3 -5 1 -14 8 -20 11 -10 13 -9 12 7 -1 20 -12 26 -20 13z"/>
<path d="M7810 879 c0 -5 5 -7 10 -4 6 3 10 8 10 11 0 2 -4 4 -10 4 -5 0 -10
-5 -10 -11z"/>
<path d="M7703 847 c-3 -5 -2 -11 1 -14 3 -4 6 -1 6 7 0 10 3 10 15 0 9 -7 18
-10 22 -6 3 3 0 6 -8 6 -12 0 -11 2 1 10 11 7 10 9 -8 7 -13 -1 -26 -5 -29
-10z"/>
<path d="M2510 839 c0 -5 5 -7 10 -4 6 3 10 8 10 11 0 2 -4 4 -10 4 -5 0 -10
-5 -10 -11z"/>
<path d="M7601 791 c-9 -6 -10 -11 -2 -15 6 -4 8 -12 5 -18 -4 -7 -2 -8 4 -4
6 4 8 14 5 23 -5 12 -3 14 7 8 9 -5 11 -4 6 3 -8 14 -7 14 -25 3z"/>
<path d="M7556 747 c3 -10 9 -15 12 -12 3 3 0 11 -7 18 -10 9 -11 8 -5 -6z"/>
<path d="M2736 681 c8 -8 53 -7 48 1 -3 4 -16 7 -29 6 -13 -1 -22 -4 -19 -7z"/>
<path d="M7344 652 c4 -7 3 -19 -4 -27 -8 -10 -8 -15 2 -21 7 -4 10 -4 6 1 -4
4 -3 14 4 22 8 11 8 17 -2 26 -10 9 -11 9 -6 -1z"/>
<path d="M7245 609 c-4 -6 -5 -12 -2 -15 2 -3 7 2 10 11 7 17 1 20 -8 4z"/>
<path d="M3054 538 c-4 -7 -3 -10 1 -5 5 4 18 -1 29 -10 21 -18 21 -18 2 5
-22 26 -23 26 -32 10z"/>
<path d="M7030 499 c0 -5 -4 -8 -8 -5 -4 2 -14 1 -21 -3 -9 -6 -10 -11 -2 -15
6 -4 11 -3 11 3 0 5 8 8 18 6 11 -2 19 3 19 11 0 8 -4 14 -9 14 -4 0 -8 -5 -8
-11z"/>
<path d="M3160 486 c0 -2 8 -10 18 -17 15 -13 16 -12 3 4 -13 16 -21 21 -21
13z"/>
<path d="M3250 475 c0 -8 4 -15 10 -15 5 0 7 7 4 15 -4 8 -8 15 -10 15 -2 0
-4 -7 -4 -15z"/>
<path d="M6926 453 c-6 -14 -5 -15 5 -6 7 7 10 15 7 18 -3 3 -9 -2 -12 -12z"/>
<path d="M3275 451 c-3 -5 0 -13 6 -17 7 -4 9 -3 5 4 -3 5 0 13 6 15 9 4 10 6
1 6 -6 1 -14 -3 -18 -8z"/>
<path d="M3338 438 c2 -10 6 -18 7 -18 1 0 5 8 7 18 3 11 0 19 -7 19 -7 0 -10
-8 -7 -19z"/>
<path d="M3310 445 c0 -5 5 -17 10 -25 5 -8 10 -10 10 -5 0 6 -5 17 -10 25 -5
8 -10 11 -10 5z"/>
<path d="M3413 413 c1 -26 12 -30 21 -7 3 8 2 13 -3 9 -5 -3 -11 1 -14 7 -3 7
-4 3 -4 -9z"/>
<path d="M3376 398 c3 -5 10 -6 15 -3 13 9 11 12 -6 12 -8 0 -12 -4 -9 -9z"/>
<path d="M3580 360 c0 -5 5 -10 11 -10 5 0 7 5 4 10 -3 6 -8 10 -11 10 -2 0
-4 -4 -4 -10z"/>
<path d="M3680 331 c8 -5 17 -8 21 -5 4 2 12 -3 19 -11 7 -8 17 -15 22 -15 14
0 4 25 -10 26 -7 1 -13 2 -14 3 -2 2 -14 4 -28 7 -18 3 -21 2 -10 -5z"/>
<path d="M6528 327 c-15 -12 -15 -14 2 -25 13 -8 21 -8 25 -2 4 6 2 9 -3 8 -6
-2 -9 2 -8 7 0 6 5 9 9 7 5 -1 6 2 2 8 -8 12 -6 12 -27 -3z"/>
<path d="M6386 287 c3 -10 9 -15 12 -12 3 3 0 11 -7 18 -10 9 -11 8 -5 -6z"/>
<path d="M6217 243 c3 -7 8 -13 12 -13 4 0 8 6 8 13 0 8 -6 14 -13 14 -7 0
-10 -6 -7 -14z"/>
<path d="M6351 244 c0 -11 3 -14 6 -6 3 7 2 16 -1 19 -3 4 -6 -2 -5 -13z"/>
<path d="M4046 228 c3 -4 9 -8 15 -8 5 0 9 4 9 8 0 5 -7 9 -15 9 -8 0 -12 -4
-9 -9z"/>
<path d="M5901 186 c-8 -9 -8 -16 -2 -20 5 -4 12 -2 16 4 3 5 3 10 -2 10 -4 0
-1 5 7 10 8 5 10 10 4 10 -6 0 -17 -6 -23 -14z"/>
<path d="M4381 163 c-10 -24 -10 -26 2 -10 16 19 32 24 21 5 -4 -7 -3 -8 5 -4
9 6 9 11 0 22 -15 18 -14 19 -28 -13z"/>
<path d="M6015 180 c-3 -5 -1 -10 4 -10 6 0 11 5 11 10 0 6 -2 10 -4 10 -3 0
-8 -4 -11 -10z"/>
<path d="M4431 154 c0 -11 3 -14 6 -6 3 7 2 16 -1 19 -3 4 -6 -2 -5 -13z"/>
<path d="M5100 119 c-15 -27 -10 -30 12 -8 10 10 13 21 8 24 -5 3 -14 -4 -20
-16z"/>
<path d="M4526 118 c3 -5 10 -6 15 -3 13 9 11 12 -6 12 -8 0 -12 -4 -9 -9z"/>
<path d="M4974 111 c1 -8 9 -15 19 -17 9 -1 15 2 11 7 -3 5 -9 7 -14 4 -5 -3
-10 0 -13 7 -3 9 -4 8 -3 -1z"/>
<path d="M5018 117 c-9 -6 -7 -7 6 -3 13 5 17 2 12 -9 -8 -21 1 -19 13 3 11
21 -8 26 -31 9z"/>
<path d="M5576 121 c-4 -5 3 -7 14 -4 23 6 26 13 6 13 -8 0 -17 -4 -20 -9z"/>
<path d="M5627 119 c7 -7 15 -10 18 -7 3 3 -2 9 -12 12 -14 6 -15 5 -6 -5z"/>
<path d="M4830 110 c0 -5 5 -10 11 -10 5 0 7 5 4 10 -3 6 -8 10 -11 10 -2 0
-4 -4 -4 -10z"/>
<path d="M5255 99 c-3 -4 2 -6 10 -5 21 3 28 13 10 13 -9 0 -18 -4 -20 -8z"/>
</g>
</svg>
